<svg width="546" height="351" viewBox="0 0 546 351" fill="none" xmlns="http://www.w3.org/2000/svg">
<g opacity="0.4" clip-path="url(#clip0)">
<path d="M456.7 54.8C443.4 36.3 429.4 18.3 414.6 0.699976C413.8 -0.200024 412.5 -0.200024 411.7 0.299976C411.5 0.399976 411.2 0.499976 411 0.799976C396.1 17.4 382 34.5 368.6 52.1C356 34 341.7 16.9 325.8 0.699976C324.9 -0.200024 323.8 0.0999761 323.1 0.799976C322.6 0.899976 322.1 1.09998 321.8 1.59998C311.9 18 301.3 34 290 49.6C277 33.5 262.9 18.1 247.6 3.59998C246.4 2.49998 244.8 3.29998 244.4 4.49998C244.2 4.59998 244.1 4.69998 244 4.89998C234.1 19.9 223.9 34.7 213.3 49.3C202.1 33.2 190.8 17.1 179.5 1.09998C178.7 -2.39611e-05 177.2 0.199976 176.4 0.899976C176 0.899976 175.6 0.999976 175.2 1.29998C155.2 16.7 136.5 33.4 119.4 51.3C117.8 52.9 120.5 55.3 122.1 53.7C139.1 35.9 157.5 19.5 177.3 4.19998C188.6 20.3 199.9 36.4 211.2 52.6C211 54.1 213.6 55.2 214.8 53.6C225.8 38.5 236.4 23.2 246.7 7.59998C261.4 21.7 275.1 36.6 287.6 52.3C287.9 52.7 288.4 52.9 288.9 53C289.6 53.9 291.3 54.2 292.2 53C303.7 37.2 314.5 21 324.6 4.49998C340.1 20.4 354.1 37.2 366.5 55.1C366.8 55.6 367.3 55.8 367.8 55.9C368.6 56.6 370.1 56.7 370.8 55.7C383.9 38 398 20.9 412.8 4.29998C427 21.3 440.5 38.7 453.4 56.6C454.7 58.4 458 56.7 456.7 54.8Z" fill="#FF6C00"/>
<path d="M456.7 80.4C443.4 61.9 429.4 43.9 414.6 26.3C413.8 25.4 412.5 25.4 411.7 25.9C411.5 26 411.2 26.1 411 26.4C396.1 43 382 60.1 368.6 77.7C355.9 59.5 341.6 42.4 325.7 26.3C324.8 25.4 323.7 25.7 323 26.4C322.5 26.5 322 26.7 321.7 27.2C311.8 43.5 301.1 59.5 289.8 75.1C276.8 59 262.7 43.6 247.4 29.1C246.2 28 244.6 28.8 244.2 30C244 30.1 243.9 30.2 243.8 30.4C233.9 45.4 223.7 60.2 213.1 74.8C202.1 58.8 190.8 42.7 179.5 26.6C178.7 25.5 177.2 25.7 176.4 26.4C176 26.4 175.6 26.5 175.2 26.8C155.2 42.2 136.5 58.9 119.4 76.8C117.8 78.4 120.5 80.8 122.1 79.2C139.1 61.5 157.5 45 177.3 29.8C188.5 45.9 199.8 62 211.1 78.2C210.9 79.7 213.5 80.8 214.7 79.2C225.7 64.1 236.3 48.8 246.6 33.2C261.3 47.3 275 62.2 287.5 77.9C287.8 78.3 288.3 78.5 288.8 78.6C289.5 79.5 291.2 79.8 292.1 78.6C303.6 62.8 314.4 46.6 324.5 30.1C340 46 354 62.8 366.4 80.7C366.7 81.2 367.2 81.4 367.7 81.5C368.5 82.2 370 82.3 370.7 81.3C383.9 63.7 398 46.5 412.9 29.9C427.1 46.9 440.6 64.3 453.5 82.2C454.7 83.9 458 82.2 456.7 80.4Z" fill="#FF6C00"/>
</g>
<path d="M76.833 55.4757C77.484 55.4757 78.135 55.4757 78.8511 55.5409L522.768 94.1753C528.888 94.6965 534.356 97.5632 538.327 102.319C542.233 107.01 544.056 113.004 543.47 119.063L523.224 327.937C522.117 339.664 512.352 348.524 500.634 348.524C499.527 348.524 498.486 348.459 497.379 348.264L22.0187 280.376C15.5087 279.464 9.71484 275.751 6.13434 270.213C2.55383 264.675 1.57733 257.899 3.33503 251.515L54.8943 71.9589C57.7587 62.2514 66.7425 55.4757 76.833 55.4757ZM76.833 53C65.7009 53 55.7406 60.362 52.6158 71.3074L0.991431 250.798C-3.24007 265.522 6.52494 280.637 21.6932 282.787L496.989 350.739C498.225 350.935 499.397 351 500.569 351C513.329 351 524.396 341.293 525.633 328.197L545.879 119.324C547.246 105.316 536.895 92.9375 522.964 91.6996L79.0464 53.0651C78.3303 53 77.5491 53 76.833 53Z" fill="#FF6C00"/>
<path d="M505.855 85.0167L485.494 277.253C484.258 288.949 475.085 298.227 463.441 299.6L90.1663 344.816C77.1557 346.384 65.1209 337.759 62.4537 324.952L10.5414 76.3263C7.22371 60.4482 19.5838 45.6156 35.847 46.0076L481.395 57.1157C496.162 57.5078 507.416 70.3801 505.855 85.0167Z" fill="#75C336"/>
<defs>
<clipPath id="clip0">
<rect width="338" height="82.9" fill="white" transform="translate(119)"/>
</clipPath>
</defs>
</svg>
