<svg width="328" height="143" viewBox="0 0 328 143" fill="none" xmlns="http://www.w3.org/2000/svg">
<path opacity="0.4" d="M327.827 1.17124C327.827 1.25656 327.781 1.37032 327.69 1.48407C319.57 9.95891 313.469 19.7419 310.9 29.4681C308.423 38.9099 307.276 48.3232 303.515 57.6228C297.093 73.4349 287.093 91.9771 265.854 102.556C265.349 102.869 264.891 103.182 264.386 103.495C264.386 103.552 264.386 103.58 264.34 103.637C264.248 104.035 263.79 104.206 263.331 104.177C246.312 115.07 227.688 125.621 206.495 133.271C205.807 133.527 205.119 133.754 204.431 133.982C204.385 134.437 203.468 134.693 202.826 134.55C185.119 140.466 166.128 143.338 145.852 142.968C127.045 142.627 108.283 140.437 90.4389 136.712C55.3009 129.346 23.8785 116.008 0.254338 98.2622C-0.70898 97.5512 1.30939 96.7833 2.22684 97.4943C15.6215 107.562 31.5391 116.236 49.3834 123.118C76.2644 133.498 107.87 140.267 139.706 141.404C139.522 141.234 139.384 141.063 139.201 140.864C124.66 132.787 111.907 123.658 101.173 113.534C100.485 112.88 101.723 112.254 102.733 112.51C121.632 117.231 131.724 129.318 141.082 139.954C141.862 140.38 142.641 140.807 143.375 141.234C143.559 141.319 143.651 141.433 143.696 141.546C147.137 141.603 150.623 141.632 154.064 141.575C162.091 141.433 169.798 140.636 177.229 139.357C163.972 134.522 150.486 130.199 140.348 122.833C131.494 116.406 120.99 108.642 118.88 100.025C118.742 99.3997 120.164 99.03 120.852 99.4566C140.623 112.567 166.311 122.72 181.449 138.304C181.541 138.39 181.541 138.475 181.587 138.532C188.055 137.252 194.339 135.631 200.44 133.669C192.504 130.74 186.633 125.82 180.669 121.582C174.11 116.918 167.642 112.197 161.724 107.22C155.761 102.215 149.66 96.8402 145.852 91.0386C142.366 85.749 142.55 80.1465 142.963 74.544C143.008 73.9752 144.201 73.4918 144.935 73.9752C157.412 82.5069 170.715 91.2377 181.128 100.85C186.358 105.685 190.027 111.031 193.651 116.349C197.275 121.667 200.853 127.042 203.881 132.531C211.174 130.029 218.239 127.099 224.982 123.943C224.936 123.943 224.936 123.943 224.936 123.914C210.44 114.33 199.569 103.04 191.036 91.0671C187.046 85.4361 183.33 79.6346 181.633 73.5486C179.89 67.2352 180.348 60.8079 180.807 54.4376C180.853 53.8972 182.046 53.3569 182.779 53.8688C195.945 63.2537 207.321 73.1789 213.055 85.2371C215.853 91.2093 218.33 97.3521 220.349 103.438C222.459 109.865 222.092 117.06 226.954 123.004C232.551 120.331 237.918 117.459 243.147 114.501C214.248 85.1518 227.918 49.802 241.358 18.775C241.266 18.6328 241.175 18.4622 241.083 18.2916C240.533 17.4099 242.78 17.0118 243.331 17.8934C243.377 17.9218 243.377 17.9503 243.377 17.9787C243.744 18.1209 243.973 18.3769 243.835 18.7181C243.835 18.7181 243.835 18.7181 243.835 18.7466C252.918 33.478 257.689 49.2332 256.45 65.0453C255.166 81.2272 246.909 96.8402 245.854 113.022C251.588 109.695 257.138 106.254 262.459 102.869C266.313 84.3839 270.304 65.6994 281.129 48.181C286.68 38.7108 293.928 29.5534 301.405 20.5667C307.781 12.8881 315.029 5.46554 326.313 0.147436C327.368 -0.364467 328.423 0.574022 327.827 1.17124Z" fill="#75C336"/>
</svg>
