<svg width="345" height="122" viewBox="0 0 345 122" fill="none" xmlns="http://www.w3.org/2000/svg">
<path opacity="0.4" d="M0.708161 34.0614C0.747666 34.1498 0.842244 34.2489 0.978725 34.3293C12.3199 39.7944 22.423 47.4389 29.2732 56.4666C35.908 65.2371 41.3144 74.5213 49.0566 82.6201C62.2448 96.3798 79.9656 111.507 104.266 113.796C104.871 113.914 105.435 114.051 106.041 114.169C106.067 114.228 106.081 114.258 106.149 114.298C106.417 114.673 106.915 114.662 107.321 114.445C127.911 118.782 149.809 122.109 172.711 121.382C173.458 121.366 174.191 121.321 174.925 121.276C175.178 121.728 176.135 121.619 176.655 121.209C195.569 120.109 214.247 115.331 232.597 106.67C249.62 98.6375 265.744 88.7088 280.319 77.5637C309.007 55.5866 331.534 28.9392 344.897 0.908791C345.448 -0.221096 343.249 -0.192555 342.74 0.918591C335.166 16.8174 324.642 32.3025 311.528 46.7181C291.779 68.4472 266.042 88.3635 237.488 102.54C237.577 102.288 237.623 102.055 237.699 101.774C247.242 87.4692 254.664 72.805 259.782 57.9335C260.107 56.9749 258.686 56.8324 257.883 57.5096C242.805 70.1167 239.183 86.7589 235.559 101.599C235.044 102.359 234.53 103.12 234.057 103.861C233.929 104.024 233.897 104.18 233.908 104.316C230.792 105.78 227.62 107.233 224.451 108.578C217.052 111.709 209.644 114.03 202.263 115.738C212.134 105.317 222.452 95.3323 228.302 83.5622C233.413 73.2889 239.414 60.9565 237.352 51.1676C237.188 50.4632 235.718 50.6608 235.287 51.3836C223.297 73.0383 204.532 94.0447 197.921 116.371C197.876 116.497 197.916 116.585 197.9 116.663C191.399 117.978 184.908 118.864 178.426 119.322C184.319 113.047 187.405 105.553 190.89 98.7282C194.722 91.218 198.445 83.6864 201.546 76.1143C204.676 68.494 207.76 60.4346 208.551 52.8696C209.287 45.966 206.525 40.2366 203.554 34.6009C203.248 34.0303 201.935 34.0164 201.488 34.8169C194.041 48.7501 185.932 63.2267 180.871 77.4367C178.333 84.5805 177.456 91.6179 176.608 98.6071C175.76 105.596 174.981 112.626 174.757 119.548C166.935 119.933 159.126 119.783 151.504 119.265C151.546 119.247 151.546 119.247 151.533 119.217C160.337 103.37 165.04 87.2343 167.29 71.3467C168.328 63.8835 169.036 56.356 167.768 49.3578C166.437 42.1053 163.042 35.6338 159.673 29.2213C159.381 28.6802 158.041 28.6074 157.608 29.4374C149.927 44.5354 144.131 59.4628 144.477 74.2964C144.686 81.6261 145.268 89.0016 146.242 96.1308C147.29 103.651 150.957 110.955 149.268 119.099C142.918 118.614 136.685 117.829 130.539 116.9C143.348 74.6949 114.492 43.653 87.8473 16.9959C87.8652 16.8111 87.87 16.5969 87.8748 16.3826C87.9695 15.2445 85.7318 15.7497 85.6372 16.8878C85.6085 16.936 85.6216 16.9655 85.6348 16.995C85.3654 17.2921 85.2744 17.6509 85.5582 17.9483C85.5582 17.9483 85.5582 17.9483 85.5713 17.9778C84.0958 36.9481 87.0332 55.2186 95.4864 71.0946C104.153 87.3348 118.925 100.139 127.381 116.473C120.603 115.367 113.939 114.068 107.511 112.734C95.4318 95.1563 83.1344 77.4282 65.1334 63.6987C55.678 56.1536 44.817 49.6255 33.8254 43.3678C24.4454 38.0159 14.3876 33.2851 1.6169 32.3827C0.41609 32.2831 -0.113123 33.6861 0.708161 34.0614Z" fill="#75C336"/>
</svg>
