<svg width="468" height="558" viewBox="0 0 468 558" fill="none" xmlns="http://www.w3.org/2000/svg">
<path d="M453.013 176.596L453.014 176.6C470.971 243.943 472.536 314.541 449.897 382.593C427.084 450.227 380.22 514.856 322.794 541.193L322.79 541.195C265.26 567.859 197.084 556.047 142.059 526.389C86.9298 496.28 45.5146 448.198 21.8984 386.729L21.897 386.725C-1.87747 325.579 -7.66333 251.572 16.6184 185.521L16.6185 185.521C40.7535 119.814 95.1485 62.4462 158.864 30.0182C222.599 -2.41987 295.338 -9.47656 348.483 18.1246C401.785 46.2055 435.341 109.319 453.013 176.596Z" fill="white" stroke="#75C336" stroke-width="2"/>
</svg>
