<svg width="471" height="526" viewBox="0 0 471 526" fill="none" xmlns="http://www.w3.org/2000/svg">
<path d="M409.664 116.488L409.666 116.491C447.098 172.196 470.073 235.471 469.472 303.293C468.581 370.788 444.12 442.376 398.048 482.399L398.045 482.401C351.963 522.757 284.118 531.401 223.221 520.204C162.093 508.63 108.42 476.945 67.4458 428.146L67.4432 428.143C26.4161 379.678 -1.56953 314.523 1.18703 248.05L1.18704 248.05C3.90984 181.929 37.6736 114.757 87.8251 67.4482C137.989 20.1279 204.381 -6.84655 262.885 3.02586C321.678 13.2863 372.523 60.767 409.664 116.488Z" fill="white" stroke="#75C336" stroke-width="2"/>
</svg>
