<svg width="1148" height="602" viewBox="0 0 1148 602" fill="none" xmlns="http://www.w3.org/2000/svg">
<path d="M892.653 64.9099C910.014 43.0894 930.384 22.0119 956.421 10.8666C985.217 -1.40826 1020.41 2.33629 1049.84 10.6618C1079.66 19.1126 1107.07 36.8432 1124.37 62.9101C1139.59 85.851 1146.81 113.91 1145.15 141.3C1143.09 175.887 1127.16 208.58 1103.12 233.26C1102.04 234.407 1103.59 236.264 1104.72 235.155C1146.8 192.045 1161.54 125.693 1132.27 71.3286C1117.45 43.8491 1092.42 23.7432 1063.48 12.6367C1047.3 6.39539 1030.08 3.34592 1012.89 1.68989C997.02 0.108208 980.953 0.235559 965.602 4.91314C934.407 14.3919 910.395 38.6944 890.613 63.5031C889.602 64.7796 891.68 66.1339 892.653 64.9099Z" fill="#FF6C00"/>
<path d="M910.393 75.9896C920.444 64.3063 931.156 53.2658 942.701 43.0744C953.306 33.7288 964.554 25.4953 978.596 22.2804C991.561 19.3268 1005.18 19.6736 1018.34 20.326C1032.35 21.0327 1046.42 22.9892 1059.74 27.6257C1111.45 45.6708 1135.26 104.196 1127.85 155.512C1123.98 182.41 1112 207.913 1093.28 227.615C1092.2 228.762 1093.8 230.656 1094.88 229.509C1129 193.562 1140.99 138.826 1124.33 91.9598C1115 65.9081 1096.77 42.224 1071.56 29.8844C1046.49 17.569 1014.54 15.1378 987.063 18.3031C971.215 20.1211 958.057 26.881 945.937 36.9755C932.26 48.4317 919.813 61.1879 908.314 74.6354C907.289 75.8209 909.367 77.1752 910.393 75.9896Z" fill="#FF6C00"/>
<path d="M925.952 85.9646C953.761 55.569 995.879 26.0195 1039.02 42.6501C1050.54 47.1012 1060.38 54.8435 1069.71 62.8529C1078.83 70.7088 1088.05 78.6414 1094.3 88.996C1104.64 106.124 1107.44 126.853 1106.25 146.526C1104.63 172.653 1096.1 197.851 1082.13 219.889C1081.31 221.228 1083.3 222.597 1084.17 221.296C1107.02 185.193 1119.45 132.952 1099.24 92.8408C1094.48 83.327 1087.6 75.4946 1079.77 68.417C1070.03 59.5401 1059.89 50.5379 1048.27 44.2383C1030.17 34.4261 1008.82 33.6049 989.238 39.2225C963.317 46.6667 942.264 64.5873 924.401 84.1085C923.323 85.2557 924.836 87.1643 925.952 85.9646Z" fill="#FF6C00"/>
<path d="M945.206 106.366C958.604 88.1002 979.792 78.7365 1001.85 75.8098C1012.73 74.3941 1025.15 73.2973 1035.57 77.5931C1045.99 81.889 1056.39 90.1973 1064.07 98.3712C1077.55 112.632 1085.34 132.164 1085.81 151.764C1086.28 172.809 1078.37 192.737 1070.56 211.856C1069.95 213.349 1072.31 214.1 1072.88 212.66C1079.85 195.675 1086.8 178.182 1088.09 159.707C1089.18 143.826 1085.66 127.731 1078.1 113.759C1069.87 98.4924 1056.49 86.4052 1041.49 77.8822C1026.8 69.5896 1007.96 71.6413 992.081 75.049C972.826 79.2163 954.953 88.9024 943.18 105.05C942.245 106.221 944.285 107.628 945.206 106.366Z" fill="#FF6C00"/>
<path d="M959.775 114.491C981.802 92.6885 1016.51 93.6645 1038.43 115.282C1059.56 136.089 1066.52 172.905 1056.14 200.538C1055.63 202.016 1057.94 202.821 1058.46 201.342C1069.53 171.877 1061.45 132.717 1037.91 111.446C1015.03 90.8175 980.198 90.7941 958.171 112.596C957.092 113.743 958.644 115.599 959.775 114.491Z" fill="#FF6C00"/>
<g opacity="0.3" clip-path="url(#clip0)">
<path d="M103.02 357.053C73.7933 359.202 43.7457 367.862 26.7651 393.337C9.7844 418.874 0.88375 448.963 -2.30444e-06 479.494C-0.0631274 481.833 2.7775 482.529 3.85063 480.443C16.6019 455.411 33.2669 432.654 53.6564 413.312C70.1951 397.635 88.5014 384.108 102.515 366.029C102.263 371.276 102.136 376.522 102.263 381.706C102.326 386.004 102.705 390.176 103.21 394.348C76.0658 408.823 51.3839 428.735 35.8551 455.727C23.8613 476.587 11.3625 512.428 24.5557 535.374C25.5026 536.954 27.3963 536.954 28.2801 535.311C42.1676 510.342 56.1182 485.31 71.142 460.973C82.8202 442.073 96.8339 423.931 104.598 403.008C107.186 416.03 111.668 428.419 117.223 440.556C116.718 441.314 116.781 442.199 117.223 442.832C95.0033 447.446 85.5346 470.582 76.3183 489.166C64.9558 512.175 55.487 533.035 57.3176 559.205C57.4439 560.848 60.032 561.607 60.9158 560.153C72.7833 540.115 83.8933 519.255 98.0333 500.734C109.522 485.689 117.602 469.254 122.21 450.986C123.094 452.819 124.041 454.589 124.988 456.422C127.702 461.669 130.48 466.978 133.194 472.225C102.957 500.354 82.6939 536.954 74.8033 577.599C74.4245 579.433 76.697 580.317 78.0227 579.433C94.4352 568.56 107.944 550.355 116.718 532.909C125.303 515.778 135.593 498.268 136.54 478.736C140.39 486.637 143.988 494.665 146.829 502.883C133.825 508.382 127.008 521.657 119.812 533.098C110.216 548.332 101 563.756 93.2989 580.065C92.4783 581.771 94.9402 583.794 96.3921 582.403C109.08 569.888 121.011 556.613 131.932 542.58C139.002 533.477 146.577 523.932 149.859 512.807C150.301 514.387 150.743 515.968 151.058 517.611C151.058 517.927 151.122 518.18 151.248 518.496C151.5 519.697 151.816 520.898 152.005 522.099C151.879 522.415 151.816 522.795 151.879 523.174C152.005 523.932 152.068 524.628 152.195 525.386C152.132 525.45 152.068 525.449 151.942 525.513C131.553 541.695 111.1 572.858 112.994 599.976C113.12 601.43 115.14 602.252 116.213 601.304C135.34 583.794 155.603 562.429 156.803 536.006C157.118 535.627 157.371 535.121 157.371 534.552C157.308 531.771 156.992 528.989 156.677 526.271C166.903 539.735 178.96 549.976 194.173 558.509C211.217 568.054 229.712 580.95 248.902 585.248C250.67 585.627 251.68 583.288 250.733 582.024C237.792 564.515 223.905 547.131 205.788 534.678C198.465 529.622 190.449 525.45 182.305 521.846C173.152 517.801 166.272 518.559 156.613 518.37C156.424 518.37 156.235 518.433 156.045 518.496C155.793 518.117 155.477 517.738 155.225 517.358C154.278 512.744 152.952 508.193 151.5 503.705C151.5 503.452 151.437 503.262 151.374 503.072C163.431 512.681 179.339 514.893 193.605 520.393C201.874 523.553 210.585 525.007 218.792 528.231C227.124 531.518 234.699 536.132 243.284 538.787C245.431 539.419 247.072 536.828 245.241 535.311C228.576 521.846 212.227 505.601 192.09 497.573C179.591 492.579 160.843 487.586 148.155 494.539C145.756 488.471 142.978 482.465 140.012 476.523C158.444 484.172 176.309 489.545 195.94 493.464C219.36 498.079 240.507 512.491 260.265 525.323C262.474 526.777 264.494 523.869 262.664 522.099C242.464 502.188 220.054 478.862 193.92 466.789C178.707 459.772 149.733 456.548 136.918 470.329C132.878 462.364 128.586 454.399 124.609 446.435C135.908 448.71 146.072 453.514 157.245 456.612C167.597 459.456 178.265 458.002 188.807 459.393C216.961 463.059 240.759 480.253 263.232 496.435C265.126 497.826 267.272 495.487 266.009 493.591C257.109 480 252.753 466.22 240.254 455.031C228.197 444.159 213.3 437.016 198.024 431.833C172.205 423.109 142.284 418.937 120.316 437.711C114.635 425.385 109.901 412.679 107.755 399.152C108.701 398.962 109.648 398.773 110.595 398.583C140.517 411.352 171.069 422.73 202.064 432.528C227.187 440.429 255.72 451.808 282.359 445.17C284.379 444.665 284.631 442.263 282.801 441.314C252.627 425.385 222.327 405.916 189.123 396.94C163.557 390.05 136.855 389.354 110.974 394.411C110.153 394.032 109.333 393.716 108.512 393.4C107.944 393.147 107.439 393.21 106.997 393.4C106.934 392.831 106.871 392.262 106.808 391.693C106.05 382.907 105.924 374.247 106.303 365.587C126.503 381.01 151.753 384.993 176.498 388.532C206.104 392.768 233.942 400.29 260.581 414.133C262.159 414.955 263.737 412.995 263.169 411.478C257.866 398.33 241.012 387.647 230.47 378.987C217.087 367.925 202.758 357.243 186.787 350.226C172.773 344.094 159.202 344.979 144.367 346.686C131.111 348.203 118.296 350.732 106.745 357.369C111.037 302.185 137.045 250.983 176.372 211.539C178.139 209.706 175.74 206.545 173.91 208.378C150.995 231.451 131.174 257.81 118.801 288.089C110.027 309.644 104.914 333.475 103.02 357.053ZM182.116 526.461C190.575 530.254 198.781 534.742 206.23 540.241C221.001 551.177 232.805 565.399 243.852 580.001C228.134 575.071 212.795 564.641 198.781 556.803C182.305 547.637 169.491 537.27 158.633 522.605C167.029 522.668 173.783 522.668 182.116 526.461ZM152.573 530.38C154.215 556.866 135.403 578.042 116.718 595.488C117.286 571.657 135.025 545.045 152.573 530.38ZM126.313 543.339C118.801 552.82 110.848 561.923 102.515 570.646C108.196 559.837 114.383 549.344 120.885 538.977C127.828 527.852 134.709 513.439 146.892 507.434C144.683 521.214 134.772 532.656 126.313 543.339ZM202.064 507.181C212.984 513.692 222.958 522.163 232.805 530.443C229.586 528.926 226.43 527.409 223.147 525.955C215.951 522.795 208.439 521.53 200.99 519.065C193.415 516.6 186.219 513.439 178.518 511.227C168.355 508.256 158.633 505.475 150.869 497.699C150.869 497.699 150.806 497.699 150.806 497.636C165.451 490.367 189.691 499.785 202.064 507.181ZM172.395 466.346C186.282 467.927 196.761 472.604 208.124 480.506C221.19 489.608 233.311 499.975 244.926 510.848C231.859 502.63 218.034 494.981 203.705 491.189C193.415 488.471 182.747 487.586 172.458 484.615C161.474 481.454 150.932 476.966 140.39 472.541C148.47 464.576 161.6 465.145 172.395 466.346ZM132.373 478.736C131.363 496.751 122.273 512.807 114.383 528.673C106.303 544.919 94.6246 561.986 79.7902 573.301C87.8071 537.27 105.987 504.526 132.373 478.736ZM90.1427 504.653C79.2852 519.508 70.3845 536.069 61.1051 552.125C61.2314 532.276 67.9226 515.272 76.8233 497.257C86.2921 478.167 95.4452 450.796 119.18 446.751C114.32 469.064 103.525 486.385 90.1427 504.653ZM203.326 438.217C217.655 443.716 231.48 451.428 242.148 462.743C249.218 470.266 253.195 479.178 257.866 487.965C238.929 474.501 219.107 461.732 196.13 456.865C183.189 454.083 169.617 456.422 156.866 452.629C145.062 449.153 134.457 444.159 122.273 442.199C122.21 442.01 122.084 441.82 122.021 441.694C144.935 421.592 177.129 428.103 203.326 438.217ZM193.794 402.692C222.705 411.731 249.534 428.166 276.236 442.515C249.66 446.687 220.938 434.677 196.256 426.649C169.68 418.052 143.483 408.255 117.728 397.445C143.105 393.463 169.112 394.98 193.794 402.692ZM101.568 399.911C93.2989 423.678 76.7602 444.159 63.8195 465.461C50.8789 486.764 38.6957 508.572 26.5757 530.38C22.0307 519.381 23.4194 505.854 25.5657 494.476C28.2169 480.506 33.5826 466.978 41.0313 454.842C55.6132 431.137 77.4545 413.248 101.568 399.911ZM45.3238 415.966C29.1638 432.275 15.655 450.733 4.54501 470.708C6.62814 445.234 14.3925 420.518 28.0276 398.773C36.7388 384.929 47.2807 375.7 62.6201 369.822C75.0558 365.081 87.9964 362.426 101.19 361.225C85.5977 382.464 63.6933 397.382 45.3238 415.966ZM144.872 350.858C160.464 349.088 174.036 348.646 188.492 355.662C202.19 362.363 214.689 371.528 226.43 381.137C231.985 385.688 237.414 390.429 242.779 395.17C247.198 399.089 252.437 402.945 256.099 407.749C234.384 397.129 211.469 390.05 187.482 386.32C159.643 381.958 130.417 379.683 107.565 361.731C118.865 354.777 131.742 352.312 144.872 350.858Z" fill="#75C336"/>
</g>
<path d="M1050.06 156.404C1127.71 242.245 1096.52 379.039 1002.94 457.535C909.359 535.571 753.395 555.31 610.041 550.261C467.35 544.752 337.27 514.915 252.983 440.55C168.696 366.186 130.866 246.835 195.906 166.503C260.947 86.1711 429.521 43.9394 606.722 40.2671C784.588 36.5948 971.744 70.5637 1050.06 156.404Z" fill="#75C336"/>
<defs>
<clipPath id="clip0">
<rect width="284" height="394" fill="white" transform="translate(0 208)"/>
</clipPath>
</defs>
</svg>
