<svg width="159" height="156" viewBox="0 0 159 156" fill="none" xmlns="http://www.w3.org/2000/svg">
<g opacity="0.4" clip-path="url(#clip0)">
<path d="M137.024 24.2114C134.892 8.79582 117.652 3.12137 104.39 1.22989C90.1335 -0.803456 75.3086 -0.377872 61.3363 3.12137C47.2693 6.6679 33.7233 13.1462 23.1612 23.1711C13.2148 32.6285 5.68396 44.7813 2.22641 58.1162C-1.32587 71.6876 -0.757509 86.0156 4.9735 98.9722C11.2255 113.064 22.6402 124.224 35.1916 132.877C41.6804 137.322 48.5955 141.2 55.6527 144.699C63.0888 148.387 70.7143 151.697 78.7662 153.778C93.9699 157.703 109.837 156.71 124.046 149.711C137.545 143.091 148.249 131.931 154.122 118.029C160.184 103.701 160.611 87.5288 155.637 72.8225C153.033 65.1147 148.959 57.9744 144.412 51.2123C139.439 43.8355 133.661 36.7898 126.461 31.4463C115.284 23.1238 101.169 20.4284 87.6706 23.6912C61.8573 29.8858 40.0227 53.9077 40.6384 81.0504C40.7805 87.9543 42.2961 94.7164 45.9431 100.627C49.9217 107.106 56.2684 111.74 63.5151 114.01C78.0557 118.596 95.2961 116.232 107.8 107.389C119.452 99.1614 125.893 84.2187 122.578 70.1271C121.015 63.4124 117.32 57.0286 111.542 53.1038C105.716 49.1317 98.3748 47.6658 91.4597 48.6588C84.7814 49.6045 78.2452 53.0092 74.4561 58.6837C70.146 65.0674 69.2461 73.5791 73.9351 80.0101C77.7242 85.259 85.0182 88.3799 91.4597 86.9613C98.4695 85.4008 105.243 77.8349 101.643 70.4108C100.175 67.3845 96.8591 65.4457 93.5437 65.1147C89.7072 64.7364 86.6286 66.7225 84.9708 70.0326C83.8815 72.1605 85.5392 74.9031 87.5758 75.707C89.9914 76.6055 92.1701 75.2341 93.2595 73.1062C93.1174 73.3426 92.6911 73.6737 92.6438 73.8155C92.6438 73.7682 92.8332 73.8155 93.2121 73.9101C93.1647 73.9101 93.7805 74.2411 93.7331 74.1465C93.6384 73.7682 93.8278 74.5721 93.7805 74.7613C93.7805 74.9504 93.6384 75.4706 93.591 75.4706C93.1648 76.4163 92.2648 77.1729 91.3649 77.6931C87.6232 79.821 82.7921 77.4566 80.6607 74.2411C78.1505 70.3636 80.2345 64.4054 83.6446 61.379C87.3864 58.0689 92.5017 56.7449 97.4275 57.1705C102.637 57.5961 107.374 59.9131 110.5 64.1217C113.626 68.2356 114.905 73.6264 114.621 78.7334C114.005 90.5551 106.237 99.7288 95.4856 104.174C84.3077 108.808 68.583 109.281 58.5892 101.668C49.8743 95.0001 48.406 83.0365 50.1111 72.9171C53.6634 51.8743 72.751 34.3308 93.7805 31.399C105.669 29.744 116.61 33.858 125.372 41.8968C130.866 46.9565 135.413 53.1984 139.392 59.4875C143.039 65.2093 146.117 71.4039 148.107 77.8822C155.543 102.33 143.939 129.709 121.109 141.247C109.6 147.063 96.7644 148.624 84.1183 145.928C70.7143 143.044 57.6893 136.471 46.0852 129.331C34.9547 122.474 24.5347 114.104 17.2881 103.086C10.7992 93.2505 7.91005 81.6179 8.99942 69.938C11.1781 46.5309 27.1397 26.5758 48.2166 16.8819C59.4418 11.7276 71.8037 9.12683 84.1656 8.74853C90.4177 8.55938 96.717 8.93768 102.922 9.78885C108.7 10.5927 114.621 11.8222 119.783 14.6594C124.093 17.0238 127.693 20.4757 128.403 25.5354C129.114 31.2572 137.781 29.8386 137.024 24.2114Z" fill="#75C336"/>
</g>
<defs>
<clipPath id="clip0">
<rect width="159" height="156" fill="white"/>
</clipPath>
</defs>
</svg>
