<svg width="159" height="156" viewBox="0 0 159 156" fill="none" xmlns="http://www.w3.org/2000/svg">
<g opacity="0.4" clip-path="url(#clip0)">
<path d="M137.023 24.2115C134.892 8.79588 117.652 3.12143 104.39 1.22995C90.1333 -0.803395 75.3085 -0.377811 61.3362 3.12143C47.2692 6.66796 33.7232 13.1463 23.161 23.1711C13.2147 32.6286 5.68384 44.7813 2.22628 58.1163C-1.326 71.6877 -0.757631 86.0156 4.97338 98.9723C11.2254 113.064 22.64 124.224 35.1914 132.877C41.6803 137.322 48.5954 141.2 55.6526 144.699C63.0887 148.387 70.7142 151.697 78.7661 153.778C93.9698 157.703 109.837 156.71 124.046 149.711C137.544 143.091 148.249 131.931 154.122 118.029C160.184 103.701 160.611 87.5288 155.637 72.8225C153.032 65.1148 148.959 57.9744 144.412 51.2124C139.439 43.8356 133.661 36.7898 126.461 31.4464C115.283 23.1239 101.169 20.4285 87.6704 23.6913C61.8572 29.8859 40.0225 53.9077 40.6383 81.0505C40.7804 87.9544 42.296 94.7165 45.943 100.627C49.9216 107.106 56.2683 111.74 63.5149 114.01C78.0556 118.596 95.296 116.232 107.8 107.389C119.451 99.1614 125.893 84.2187 122.577 70.1272C121.014 63.4124 117.32 57.0287 111.542 53.1039C105.716 49.1317 98.3746 47.6658 91.4595 48.6589C84.7812 49.6046 78.2451 53.0093 74.456 58.6837C70.1459 65.0675 69.2459 73.5791 73.935 80.0102C77.7241 85.259 85.0181 88.38 91.4595 86.9614C98.4694 85.4009 105.242 77.835 101.643 70.4109C100.174 67.3845 96.859 65.4458 93.5435 65.1148C89.7071 64.7365 86.6284 66.7225 84.9707 70.0326C83.8813 72.1605 85.5391 74.9032 87.5757 75.7071C89.9913 76.6055 92.17 75.2342 93.2594 73.1063C93.1173 73.3427 92.691 73.6737 92.6436 73.8156C92.6436 73.7683 92.8331 73.8156 93.212 73.9101C93.1646 73.9101 93.7804 74.2412 93.733 74.1466C93.6383 73.7683 93.8277 74.5722 93.7804 74.7613C93.7804 74.9505 93.6383 75.4706 93.5909 75.4706C93.1646 76.4164 92.2647 77.173 91.3648 77.6931C87.6231 79.821 82.792 77.4567 80.6606 74.2412C78.1503 70.3636 80.2343 64.4055 83.6445 61.3791C87.3863 58.069 92.5015 56.745 97.4274 57.1705C102.637 57.5961 107.374 59.9132 110.5 64.1217C113.626 68.2357 114.905 73.6264 114.62 78.7334C114.005 90.5552 106.237 99.7289 95.4855 104.174C84.3076 108.808 68.5829 109.281 58.5891 101.668C49.8742 95.0002 48.4059 83.0366 50.111 72.9171C53.6633 51.8744 72.7509 34.3309 93.7804 31.3991C105.669 29.744 116.61 33.858 125.372 41.8968C130.866 46.9565 135.413 53.1984 139.392 59.4876C143.039 65.2093 146.117 71.4039 148.107 77.8823C155.543 102.33 143.939 129.709 121.109 141.247C109.6 147.063 96.7643 148.624 84.1182 145.928C70.7142 143.044 57.6892 136.471 46.0851 129.331C34.9546 122.474 24.5346 114.104 17.2879 103.086C10.7991 93.2506 7.90993 81.6179 8.9993 69.938C11.178 46.5309 27.1396 26.5758 48.2165 16.882C59.4417 11.7277 71.8036 9.12689 84.1655 8.74859C90.4175 8.55944 96.7169 8.93774 102.922 9.78891C108.7 10.5928 114.62 11.8222 119.783 14.6595C124.093 17.0238 127.693 20.4758 128.403 25.5355C129.114 31.2572 137.781 29.8386 137.023 24.2115Z" fill="#75C336"/>
</g>
<defs>
<clipPath id="clip0">
<rect width="159" height="156" fill="white"/>
</clipPath>
</defs>
</svg>
