<svg width="188" height="211" viewBox="0 0 188 211" fill="none" xmlns="http://www.w3.org/2000/svg">
<path opacity="0.5" d="M140.271 2.52271C142.216 4.71429 144.375 6.81476 146.259 9.1584C148.903 12.6889 151.061 16.5538 152.792 20.6009C153.976 23.3699 155.374 26.0479 156.559 28.8169C158.32 33.2291 159.869 37.7323 161.417 42.2356C162.935 46.3738 164.241 50.6032 165.546 54.8325C166.456 57.8447 167.367 60.857 168.217 64.0213C169.765 69.4068 171.099 74.8834 172.586 80.4209C173.891 85.5324 175.257 90.4919 176.409 95.5425C178.169 103.483 179.867 111.576 181.413 119.608C182.807 127.58 184.049 135.49 185.078 143.491C186.198 151.705 186.953 159.95 187.86 168.255C188.284 171.602 188.342 174.979 188.401 178.355C188.431 179.603 188.004 180.667 187.821 182.005C186.239 181.548 185.174 182.004 184.139 182.824C182.891 183.736 182.1 184.831 180.852 185.742C178.204 187.505 175.556 189.268 172.483 190.33C162.655 193.275 152.645 195.793 142.666 197.794C131.957 199.856 121.308 201.765 110.721 203.522C102.019 204.977 93.2269 206.218 84.5564 207.156C72.3264 208.608 60.2182 209.756 47.8367 210.265C38.0107 210.562 28.2455 210.708 18.4508 209.606C15.409 209.27 12.3062 209.085 9.44722 208.292C6.89233 207.621 4.18539 206.889 2.02692 204.789C0.658938 203.358 0.325218 201.989 0.691456 200.194C1.11864 198.248 1.39375 196.24 1.66887 194.233C1.88305 192.377 2.79659 190.978 4.22727 189.61C8.58023 185.354 14.0574 183.137 19.6257 181.133C26.4111 178.735 33.4698 176.975 40.4978 175.732C49.1991 174.278 58.0826 173.249 66.8744 172.89C74.2059 172.652 81.4463 172.2 88.808 172.327C99.6985 172.456 110.558 173.102 121.479 173.596C121.996 173.626 122.513 173.657 123 173.323C122.544 173.14 121.936 172.896 121.479 172.714C117.799 171.768 114.119 170.823 110.439 169.877C107.215 169.114 103.991 168.352 100.766 167.589C98.3636 166.979 96.1738 166.278 93.771 165.668C91.3681 165.058 88.9044 164.6 86.5625 163.838C84.1597 163.228 81.8178 162.466 79.415 161.856C76.708 161.124 74.1531 160.453 71.4462 159.721C70.1687 159.386 68.8913 159.05 67.6139 158.715C64.6028 157.861 61.5006 156.794 58.4895 155.94C55.0223 154.904 51.342 153.958 47.8747 152.922C45.2287 152.038 42.4307 151.093 39.6935 149.996C34.3104 148.015 28.9273 146.034 23.453 143.84C19.9556 142.439 16.428 140.672 13.1133 138.814C10.8934 137.748 8.9473 136.438 6.84919 135.068C5.99776 134.55 5.42027 133.789 4.78184 133.181C3.65705 132.024 3.32333 130.655 3.62862 129.012C3.90315 127.887 3.81262 126.792 4.08715 125.666C4.45339 123.872 4.97169 122.138 5.42904 120.556C5.48999 120.404 5.55093 120.252 5.55093 120.252C7.71174 118.824 9.356 116.483 12.3984 115.937C17.1141 115.18 21.8292 115.305 26.4834 115.581C35.2746 116.104 43.9132 117.449 52.4298 119.097C57.2964 120.165 62.0719 121.02 66.9385 122.088C70.3146 122.911 73.7819 123.948 77.2491 124.985C80.2602 125.838 83.0583 126.783 86.0694 127.637C89.6887 128.735 93.1559 129.771 96.6534 131.173C101.063 132.94 105.564 134.921 109.913 136.84C110.521 137.084 111.221 137.54 111.768 137.936C111.829 137.784 111.89 137.632 112.042 137.693C109.883 135.593 107.634 133.279 105.475 131.179C97.9361 123.569 90.4879 116.171 82.9487 108.561C76.291 101.834 69.9683 94.7114 64.1934 87.1024C60.4853 82.263 57.0813 77.5456 54.5601 71.9465C53.2844 68.9645 52.4649 66.1652 53.1365 62.7281C53.5944 60.2644 53.9003 57.7397 54.5712 55.1848C54.9369 54.2724 55.3937 53.573 56.2155 52.8435C56.9155 52.4181 57.3113 51.8708 57.8592 51.3844C58.8639 50.1987 60.294 49.7129 61.7542 49.5922C64.3706 49.2288 66.9255 49.8998 69.4195 50.7228C72.5217 51.7896 75.4718 52.7954 78.3912 54.3184C81.7667 56.0242 85.0204 58.0341 88.274 60.044C98.8557 67.1086 108.159 75.6021 117.34 84.3998C124.454 91.31 131.355 98.3113 138.316 105.161C138.955 105.769 139.593 106.378 140.658 106.805C140.324 105.436 139.929 104.219 139.596 102.849C138.29 98.6201 136.985 94.3908 135.68 90.1614C134.374 85.9321 133.069 81.7028 131.977 77.3823C129.398 67.5243 126.819 57.6664 124.391 47.8693C122.055 38.2853 120.297 28.5799 119.696 18.632C119.394 14.9813 119.609 11.3614 120.859 7.80304C121.529 6.13036 122.686 5.00555 124.238 4.21565C126.277 3.09144 128.255 2.1193 130.294 0.995088C131.846 0.205178 133.397 0.297459 135.192 0.663699C135.648 0.846526 136.074 0.664286 136.591 0.695038C137.686 1.48671 139.054 2.03517 140.271 2.52271ZM176.981 151.365L177.194 151.274C177.133 150.543 176.921 149.752 176.861 149.022C174.102 135.209 171.068 121.64 167.518 108.039C165.971 101.772 164.059 95.5343 162.298 89.3577C161.145 85.1893 159.779 81.1121 158.565 77.0958C157.351 73.0794 156.288 69.124 154.861 65.1988C153.586 61.3346 152.25 57.6224 150.975 53.7581C148.971 48.1898 146.906 42.7736 144.841 37.3574C143.839 35.0143 142.684 32.6103 141.621 30.4193C139.707 26.8284 137.793 23.2375 135.879 19.6466C135.696 19.2206 135.24 19.0378 134.754 18.4899C134.844 19.5851 134.753 20.2543 134.813 20.9844C136.024 30.2939 137.751 39.6342 140.118 48.7011C142.424 57.9201 145.095 67.1089 147.766 76.2977C149.891 83.3262 152.168 90.4157 154.444 97.5052C156.235 103.165 158.24 108.733 160.183 114.453C161.822 119.17 163.523 123.734 165.223 128.298C165.982 130.367 166.59 132.375 167.349 134.444C168.108 136.514 168.593 138.826 169.778 140.713C171.905 144.212 174.55 147.743 176.981 151.365ZM157.294 158.653C157.507 158.561 157.568 158.409 157.781 158.318C156.657 156.279 155.532 154.24 154.195 152.293C146.719 141.002 137.995 130.622 128.602 121.034C123.859 116.133 119.117 111.232 114.375 106.331C108.112 99.9386 101.789 93.6982 95.3135 87.3968C89.4156 81.8563 83.2437 76.5591 76.402 72.0523C75.3074 71.2606 74.1519 70.621 72.8443 69.9205C72.7224 70.2246 72.6614 70.3767 72.6614 70.3767C73.0259 71.2287 73.5425 72.1416 73.9679 72.8416C77.6145 78.7152 81.8089 84.1024 86.4294 89.3074C95.184 99.1695 104.547 108.393 113.972 117.465C120.113 123.279 126.254 129.094 132.395 134.908C140.147 142.427 148.113 149.855 155.865 157.374C156.351 157.922 156.747 158.257 157.294 158.653ZM27.2526 194.25C27.1916 194.402 27.3437 194.463 27.2828 194.615C27.5869 194.737 27.891 194.858 28.2561 194.828C35.1616 194.772 42.0062 194.868 48.8206 194.599C61.2021 194.09 73.5232 192.851 85.5101 191.125C96.7668 189.459 107.993 187.428 119.311 185.61C121.775 185.186 124.301 184.61 126.978 184.094C126.431 183.699 125.975 183.516 125.396 183.637C119.373 183.694 113.35 183.751 107.327 183.808C98.2915 183.893 89.1956 184.13 80.1908 184.581C73.1634 184.941 66.0142 185.605 58.8951 186.635C49.0075 187.967 39.4844 190.151 30.1128 193.278C29.1696 193.43 28.2567 193.946 27.2526 194.25ZM86.4216 147.015C86.4825 146.863 86.4825 146.863 86.5434 146.711C84.5666 145.919 82.6508 144.975 80.4609 144.273C78.2711 143.572 75.8683 142.962 73.6785 142.261C70.9715 141.529 68.1735 140.584 65.4665 139.853C62.2424 139.09 58.8663 138.266 55.6422 137.504C53.8476 137.137 52.2051 136.832 50.4106 136.466C51.5052 137.258 52.7217 137.745 53.9382 138.233C57.1013 139.147 60.2644 140.062 63.4885 140.825C66.1955 141.557 68.9935 142.501 71.7005 143.233C75.3808 144.179 79.2131 145.185 82.8933 146.131C84.1099 146.618 85.2962 146.741 86.4216 147.015Z" fill="#75C336"/>
</svg>
