<svg width="360" height="291" viewBox="0 0 360 291" fill="none" xmlns="http://www.w3.org/2000/svg">
<path opacity="0.5" d="M206.641 48.7444C190.166 24.5078 167.642 2.81584 137.09 0.847364C106.484 -1.0895 75.9759 6.24674 49.0931 20.7471C47.036 21.8618 47.8542 24.6695 50.1972 24.5559C78.2512 23.0829 106.291 26.1371 133.237 34.1234C155.083 40.6081 175.951 49.6982 198.615 52.7951C193.945 55.1998 189.338 57.7137 184.912 60.4147C181.221 62.6186 177.797 65.0326 174.437 67.556C148.329 51.2865 118.744 39.8672 87.604 39.9146C63.5419 39.9577 26.2531 47.054 12.978 69.9526C12.0828 71.5628 13.0297 73.2028 14.8949 73.1464C43.4622 72.689 72.1158 72.2546 100.704 73.0973C122.911 73.7607 145.629 76.8261 167.631 73.0887C157.648 81.8409 149.16 91.9171 141.427 102.796C140.517 102.738 139.782 103.235 139.456 103.934C124.35 86.9981 99.5791 90.3657 78.8765 91.6764C53.2688 93.3407 30.4691 95.5705 8.72078 110.241C7.36058 111.172 7.99772 113.792 9.6987 113.831C32.986 114.089 56.6063 113.281 79.716 116.266C98.4893 118.693 116.763 117.473 134.887 112.33C133.742 114.012 132.682 115.717 131.568 117.453C128.382 122.427 125.172 127.488 121.986 132.462C82.5064 120.34 40.6785 121.092 1.53333 134.581C-0.243587 135.17 0.126278 137.58 1.55548 138.286C19.1776 147.063 41.698 149.66 61.1943 148.535C80.3222 147.405 100.631 147.561 118.02 138.615C113.102 145.9 107.949 153.03 102.253 159.599C90.9881 151.087 76.0833 151.82 62.5766 151.309C44.586 150.616 26.6206 150.347 8.64619 151.831C6.75781 151.974 6.23696 155.118 8.16726 155.68C25.3505 160.41 42.8119 164.105 60.4252 166.546C71.8432 168.117 83.8969 169.905 95.173 167.185C94.0253 168.358 92.8777 169.531 91.6122 170.626C91.3385 170.784 91.151 170.965 90.9404 171.232C90.0266 172.052 89.1443 172.925 88.1989 173.69C87.862 173.739 87.502 173.874 87.2051 174.118C86.6113 174.607 86.0407 175.009 85.4469 175.497C85.3606 175.474 85.329 175.42 85.2112 175.342C61.0022 165.775 23.7876 163.645 1.24961 178.844C0.0536597 179.68 0.351986 181.84 1.7097 182.296C26.437 190.105 55.0718 196.971 78.5541 184.798C79.0404 184.882 79.6046 184.848 80.0973 184.563C82.4744 183.118 84.7253 181.454 86.9214 179.821C80.3743 195.41 77.5343 210.971 77.7506 228.413C78.0063 247.946 76.0865 270.411 81.959 289.18C82.5143 290.9 85.0447 290.605 85.6662 289.153C94.3597 269.191 102.47 248.473 104.196 226.557C104.914 217.687 104.519 208.658 103.568 199.804C102.495 189.855 98.3976 184.275 93.7328 175.816C93.6381 175.652 93.4886 175.52 93.3392 175.387C93.5414 174.979 93.7121 174.516 93.9143 174.108C97.4371 170.98 100.716 167.557 103.877 164.055C104.096 163.929 104.228 163.779 104.361 163.63C102.068 178.876 108.106 193.758 110.477 208.863C111.874 217.605 114.971 225.876 116.282 234.594C117.602 243.454 117.393 252.322 119.386 261.084C119.912 263.259 122.977 263.384 123.375 261.04C126.703 239.876 132.597 217.594 129.481 196.141C127.557 182.82 122.507 164.087 110.142 156.575C114.198 151.463 118.009 146.055 121.672 140.515C124.264 160.303 128.543 178.46 134.965 197.421C142.678 220.01 140.771 245.53 139.537 269.057C139.382 271.698 142.911 271.993 143.528 269.523C150.672 242.073 159.668 211.004 157.057 182.334C155.527 165.651 143.831 138.947 125.49 134.739C130.368 127.258 135.119 119.558 140.028 112.132C143.707 123.055 144.628 134.259 147.532 145.484C150.245 155.871 156.838 164.383 160.905 174.208C171.807 200.423 168.816 229.63 166.038 257.183C165.78 259.518 168.879 260.208 169.89 258.166C177.209 243.663 186.966 233 190.406 216.582C193.793 200.704 192.53 184.231 189.381 168.41C184.027 141.689 172.679 113.69 145.437 104.053C153.271 92.9694 161.907 82.5165 172.549 73.8941C173.187 74.6193 173.824 75.3445 174.462 76.0697C178.364 108.367 183.787 140.515 190.799 172.256C196.518 197.965 200.93 228.364 219.998 248.115C221.446 249.611 223.652 248.629 223.558 246.57C222.267 212.474 223.977 176.498 215.149 143.255C208.333 117.669 195.584 94.1971 178.264 74.3117C178.182 73.4114 178.046 72.5427 177.909 71.674C177.844 71.0555 177.537 70.6498 177.152 70.3619C177.613 70.0228 178.074 69.6837 178.535 69.3446C185.766 64.2953 193.202 59.856 200.892 55.854C197.634 81.0596 206.81 104.918 216.117 128.118C227.252 155.875 234.657 183.744 235.988 213.736C236.065 215.513 238.551 215.9 239.581 214.65C248.316 203.484 249.141 183.546 251.37 170.086C254.258 152.966 256.345 135.215 254.436 117.875C252.74 102.673 245.187 91.3622 236.292 79.3686C228.35 68.6469 219.753 58.8135 208.229 52.1279C258.166 28.2533 315.512 25.1757 369.335 39.5117C371.806 40.1258 373.344 36.4681 370.841 35.7993C339.403 27.491 306.664 23.505 274.256 27.9293C251.201 31.1081 228.007 38.5954 206.641 48.7444ZM99.4769 201.947C100.422 211.169 100.638 220.52 99.5998 229.721C97.5149 247.981 91.0999 265.315 83.9776 282.183C80.3885 266.105 81.7515 247.606 81.5327 231.551C81.2326 212.699 83.8033 196.418 91.075 179.683C95.2181 186.985 98.5953 192.835 99.4769 201.947ZM81.3116 178.322C59.1948 192.987 31.4502 187.284 6.99856 179.825C27.9208 168.402 59.8368 170.457 81.3116 178.322ZM56.9592 162.06C44.9917 160.295 33.1319 157.958 21.411 155.104C33.6128 154.619 45.7933 154.73 58.0221 155.177C71.1288 155.628 87.0505 154.381 98.3427 161.929C85.304 166.906 70.4401 164.044 56.9592 162.06ZM126.147 209.583C125.969 222.296 123.62 235.168 121.373 247.837C121.077 244.29 120.813 240.798 120.431 237.229C119.57 229.416 116.908 222.279 115.319 214.595C113.667 206.802 112.806 198.99 110.871 191.214C108.362 180.927 105.91 171.118 108.762 160.506C108.762 160.506 108.73 160.451 108.785 160.42C122.403 169.468 126.366 195.17 126.147 209.583ZM146.677 163.471C152.252 176.288 153.441 187.702 152.279 201.493C150.929 217.361 148.012 233.04 144.403 248.535C144.986 233.11 144.698 217.314 140.818 203.008C138.027 192.738 133.46 183.056 130.888 172.66C128.133 161.568 126.749 150.194 125.31 138.852C136.248 141.867 142.32 153.523 146.677 163.471ZM115.937 135.007C99.8299 143.14 81.3801 143.295 63.6943 144.395C45.5853 145.52 24.9655 143.94 7.74929 136.751C42.9613 125.678 80.4083 125.051 115.937 135.007ZM72.3767 111.392C54.0832 109.417 35.2902 109.989 16.7457 109.981C33.9982 100.166 52.0698 97.4588 72.1219 96.1593C93.3887 94.8145 121.669 89.0559 137.04 107.588C115.285 114.536 94.8887 113.848 72.3767 111.392ZM186.503 176.194C188.905 191.353 189.139 207.181 184.674 222.078C181.695 231.962 175.964 239.862 170.691 248.301C172.882 225.168 174.03 201.618 166.756 179.286C162.694 166.688 153.883 156.104 150.792 143.164C147.901 131.203 146.923 119.522 142.528 107.991C142.661 107.842 142.762 107.638 142.84 107.52C171.705 117.314 182.164 148.45 186.503 176.194ZM212.503 150.176C219.13 179.734 218.311 211.186 219.236 241.485C202.335 220.555 198.375 189.676 192.986 164.287C187.144 136.974 182.53 109.387 179.014 81.6783C195.151 101.664 206.841 124.945 212.503 150.176ZM168.799 68.9159C144.081 73.6383 118.075 69.5556 93.1558 68.9999C68.2371 68.4441 43.2591 68.7973 18.3127 69.2051C25.5655 59.7696 37.9749 54.2086 48.9018 50.3782C62.3256 45.6894 76.7235 43.5724 90.9586 43.9549C118.778 44.731 145.191 54.7016 168.799 68.9159ZM126.772 28.2347C104.568 22.394 81.8287 19.924 58.9749 20.2899C82.0779 9.35678 107.365 3.723 133.014 4.65883C149.358 5.28131 162.622 9.79638 175.382 20.1413C185.706 28.5405 194.476 38.42 202.112 49.2451C175.923 46.3617 152.051 34.8509 126.772 28.2347ZM232.931 81.8919C242.26 94.5099 249.429 106.042 250.581 122.07C251.627 137.283 249.939 152.69 247.488 167.662C246.324 174.749 244.933 181.821 243.51 188.838C242.325 194.624 241.606 201.089 239.276 206.662C237.615 182.547 232.289 159.162 223.525 136.524C213.383 110.234 200.741 83.7853 204.862 55.0194C216.534 61.3283 225.107 71.2479 232.931 81.8919Z" fill="#75C336"/>
</svg>
