<svg width="82" height="74" viewBox="0 0 82 74" fill="none" xmlns="http://www.w3.org/2000/svg">
<g opacity="0.5" clip-path="url(#clip0)">
<path d="M79.3151 36.4545C72.4939 31.3611 62.9877 31.1428 53.8443 31.9432C59.5771 24.8124 63.5682 16.1536 61.7541 8.07693C60.6656 3.34734 54.2072 2.98352 51.8125 6.7672C47.7488 13.2431 43.685 19.719 39.6213 26.1949C38.8231 22.7023 38.0249 19.1369 37.3718 15.5715C36.2833 10.2598 34.9045 5.74852 31.3488 1.67379C28.1558 -2.03713 22.2054 1.09168 22.0603 5.53023C21.9151 13.7525 23.1488 21.6836 25.6886 29.251C20.6815 29.1055 15.747 29.0327 10.7399 29.1055C6.38593 29.1782 3.48328 29.1782 0.725756 32.8164C-0.435305 34.3444 -0.14504 36.7456 0.725756 38.2736C3.41071 43.0032 11.3204 44.0946 16.1824 44.895C18.8673 45.3316 21.4797 45.2588 24.0196 45.0406C22.0603 48.0238 20.2461 51.1526 17.8514 53.6994C14.4408 57.2647 10.7399 63.8862 16.5452 67.3788C21.4072 70.2893 27.285 66.2146 30.1877 62.2854C32.2921 59.5204 33.9612 56.3188 35.5576 52.9717C36.9364 56.1005 38.5328 59.1566 40.2744 62.0671C43.1045 66.7239 47.6036 75.9648 54.4249 73.4181C63.6408 69.9255 56.4567 57.4103 49.7081 47.8055C59.7222 49.6246 69.9541 50.0612 79.2426 45.6954C83.3788 43.9491 82.2178 38.6374 79.3151 36.4545Z" fill="#75C336"/>
</g>
<defs>
<clipPath id="clip0">
<rect width="82" height="74" fill="white"/>
</clipPath>
</defs>
</svg>
