<svg width="160" height="157" viewBox="0 0 160 157" fill="none" xmlns="http://www.w3.org/2000/svg">
<path opacity="0.5" d="M137.024 24.2119C134.892 8.79637 117.652 3.12192 104.39 1.23044C90.1335 -0.802907 75.3086 -0.377323 61.3363 3.12192C47.2693 6.66845 33.7233 13.1468 23.1612 23.1716C13.2148 32.629 5.68396 44.7818 2.22641 58.1168C-1.32587 71.6881 -0.757509 86.0161 4.9735 98.9728C11.2255 113.064 22.6402 124.224 35.1916 132.878C41.6804 137.323 48.5955 141.2 55.6527 144.699C63.0888 148.388 70.7143 151.698 78.7662 153.778C93.9699 157.703 109.837 156.71 124.046 149.712C137.545 143.092 148.249 131.932 154.122 118.029C160.184 103.701 160.611 87.5293 155.637 72.823C153.033 65.1152 148.959 57.9749 144.412 51.2129C139.439 43.8361 133.661 36.7903 126.461 31.4469C115.284 23.1243 101.169 20.429 87.6706 23.6918C61.8573 29.8864 40.0227 53.9082 40.6384 81.051C40.7805 87.9549 42.2961 94.7169 45.9431 100.628C49.9217 107.106 56.2684 111.74 63.5151 114.01C78.0557 118.597 95.2961 116.233 107.8 107.39C119.452 99.1619 125.893 84.2192 122.578 70.1277C121.015 63.4129 117.32 57.0292 111.542 53.1043C105.716 49.1322 98.3748 47.6663 91.4597 48.6594C84.7814 49.6051 78.2452 53.0098 74.4561 58.6842C70.146 65.068 69.2461 73.5796 73.9351 80.0107C77.7242 85.2595 85.0182 88.3805 91.4597 86.9619C98.4695 85.4014 105.243 77.8355 101.643 70.4114C100.175 67.385 96.8591 65.4463 93.5437 65.1152C89.7072 64.7369 86.6286 66.723 84.9708 70.0331C83.8815 72.161 85.5392 74.9037 87.5758 75.7076C89.9914 76.606 92.1701 75.2347 93.2595 73.1068C93.1174 73.3432 92.6911 73.6742 92.6438 73.8161C92.6438 73.7688 92.8332 73.8161 93.2121 73.9106C93.1647 73.9106 93.7805 74.2416 93.7331 74.1471C93.6384 73.7688 93.8278 74.5727 93.7805 74.7618C93.7805 74.951 93.6384 75.4711 93.591 75.4711C93.1648 76.4169 92.2648 77.1734 91.3649 77.6936C87.6232 79.8215 82.7921 77.4572 80.6607 74.2416C78.1505 70.3641 80.2345 64.4059 83.6446 61.3796C87.3864 58.0695 92.5017 56.7454 97.4275 57.171C102.637 57.5966 107.374 59.9137 110.5 64.1222C113.626 68.2362 114.905 73.6269 114.621 78.7339C114.005 90.5557 106.237 99.7294 95.4856 104.174C84.3077 108.808 68.583 109.281 58.5892 101.668C49.8743 95.0007 48.406 83.037 50.1111 72.9176C53.6634 51.8749 72.751 34.3314 93.7805 31.3996C105.669 29.7445 116.61 33.8585 125.372 41.8973C130.866 46.957 135.413 53.1989 139.392 59.4881C143.039 65.2098 146.117 71.4044 148.107 77.8828C155.543 102.33 143.939 129.709 121.109 141.247C109.6 147.064 96.7644 148.624 84.1183 145.929C70.7143 143.044 57.6893 136.471 46.0852 129.331C34.9547 122.474 24.5347 114.105 17.2881 103.087C10.7992 93.251 7.91005 81.6184 8.99942 69.9385C11.1781 46.5314 27.1397 26.5763 48.2166 16.8825C59.4418 11.7282 71.8037 9.12738 84.1656 8.74908C90.4177 8.55993 96.717 8.93823 102.922 9.78939C108.7 10.5933 114.621 11.8227 119.783 14.66C124.093 17.0243 127.693 20.4763 128.403 25.536C129.114 31.2577 137.781 29.8391 137.024 24.2119Z" fill="#75C336"/>
</svg>
