<svg width="110" height="104" viewBox="0 0 110 104" fill="none" xmlns="http://www.w3.org/2000/svg">
<path opacity="0.5" d="M62.4852 102.002C71.4869 107.161 81.507 100.378 87.9099 94.1517C94.7929 87.4589 100.61 79.4641 104.459 70.6664C108.321 61.7995 110.423 52.0126 109.439 42.3545C108.503 33.2526 105.161 24.3265 99.5347 17.0677C93.8224 9.66246 86.0316 4.1229 76.8602 1.86595C66.8777 -0.578652 56.3379 0.895329 46.6571 3.99045C41.6674 5.60229 36.8034 7.67027 32.0811 9.9674C27.1045 12.3873 22.2504 15.0614 17.8711 18.4615C9.60407 24.8831 3.66138 33.6589 1.56269 44.0077C-0.446038 53.8275 1.07912 64.023 6.02019 72.7875C11.1086 81.8255 19.467 88.6414 29.2527 92.0112C34.3808 93.7782 39.808 94.5393 45.2287 94.8963C51.1474 95.279 57.2196 95.1019 62.9728 93.4814C71.9193 90.9761 79.0936 84.6281 82.8737 76.1766C90.1258 60.0333 86.3511 38.7235 71.7801 27.9863C68.0798 25.2475 63.8945 23.2912 59.2897 22.8063C54.2503 22.2651 49.2188 23.7249 45.0679 26.623C36.7219 32.425 30.9429 42.4844 30.5121 52.6852C30.1044 62.1856 35.3627 71.674 44.1484 75.6679C48.328 77.5799 53.2016 78.2325 57.6273 76.7835C62.0972 75.3288 65.8626 72.0531 68.1569 68.0001C70.3797 64.0913 71.2474 59.2553 69.7979 54.9436C68.1865 50.0679 64.0626 46.1242 58.7587 45.977C54.4452 45.8369 49.826 48.4131 47.9492 52.3897C45.9156 56.724 47.1469 63.3808 52.5307 64.5074C54.7258 64.9662 57.0999 64.0072 58.6257 62.3929C60.3889 60.523 60.5958 58.0893 59.5251 55.8657C58.8464 54.4237 56.7238 54.1805 55.4696 54.9274C54.0112 55.8356 53.8467 57.544 54.5254 58.986C54.4585 58.8146 54.4576 58.4548 54.4021 58.372C54.427 58.3913 54.3249 58.472 54.1206 58.6334C54.1399 58.6084 53.7143 58.7983 53.7835 58.8119C54.0217 58.9161 53.5203 58.6884 53.4399 58.5863C53.3401 58.5092 53.1235 58.2223 53.1428 58.1973C52.8176 57.587 52.7852 56.8038 52.8776 56.1171C53.2799 53.2757 56.4962 51.6905 59.0613 51.8766C62.1301 52.1325 64.4242 55.6602 64.631 58.6928C64.8524 62.0159 63.4662 65.2543 61.2341 67.6796C58.8862 70.2549 55.7334 71.8094 52.2391 71.7434C48.7946 71.716 45.4293 70.1936 42.8508 67.9623C36.8648 62.8195 35.1906 54.9826 37.2274 47.4987C39.338 39.7128 45.4972 31.224 53.5868 29.0542C60.6563 27.1737 67.5665 31.2749 72.2104 36.2987C81.8645 46.7489 83.3409 63.9691 76.317 76.2588C72.3451 83.2054 65.7156 87.301 57.9033 88.6476C52.9947 89.4841 47.8485 89.3391 42.909 88.8749C38.4039 88.4671 33.881 87.5667 29.6524 85.976C13.7238 79.9355 4.00826 62.6549 7.22516 45.9081C8.84727 37.4655 13.2552 30.0577 19.8312 24.4843C26.8158 18.5882 35.592 14.3952 44.0884 11.1832C52.2421 8.10536 60.9046 6.01908 69.6709 6.68625C77.5046 7.27143 84.8192 10.4881 90.5374 15.823C101.999 26.5121 106.021 43.0659 102.546 58.1365C100.69 66.1594 97.0242 73.7413 92.1856 80.4174C89.7374 83.793 86.9705 86.9622 83.9927 89.8888C81.2136 92.6098 78.152 95.2322 74.5511 96.7997C71.5471 98.11 68.2589 98.6022 65.2999 96.915C61.9917 94.9579 59.2076 100.109 62.4852 102.002Z" fill="#75C336"/>
</svg>
