<svg width="333" height="198" viewBox="0 0 333 198" fill="none" xmlns="http://www.w3.org/2000/svg">
<path opacity="0.7" d="M197.224 20.3545C284.163 13.6572 337.403 39.7932 332.618 120.161C329.228 179.131 304.702 198.57 245.679 194.976C165.719 190.239 94.7321 207.391 45.2806 185.828C10.186 170.473 -15.7362 62.1722 62.4291 39.3031C77.1848 34.8927 93.9345 35.3827 109.288 33.0958C136.606 28.8487 169.508 22.4781 197.224 20.3545Z" fill="#75C336"/>
<path d="M89.1491 193.179C74.3934 193.179 60.6347 191.546 47.6736 187.625C25.1413 180.601 2.60897 142.541 0.216158 107.584C-1.97726 74.9137 12.579 50.2478 41.2928 38.1599C50.4653 34.4028 60.6347 32.4426 70.4054 30.4824C75.9886 29.5023 81.5718 28.3588 86.9557 26.8887C94.5329 24.9285 102.31 22.8049 110.684 20.3547C131.422 14.6374 152.957 8.59347 172.499 4.99977L172.898 6.30657L172.499 4.99977C221.352 -3.9845 257.244 -0.88084 282.768 14.4741C306.696 28.8489 320.654 54.6582 324.243 90.922C327.434 122.939 322.448 144.011 308.49 157.079C296.327 168.35 277.384 174.231 248.471 175.537C218.76 176.844 191.242 181.091 164.523 185.012C137.205 189.422 112.08 193.179 89.1491 193.179ZM221.751 2.71286C207.394 2.71286 191.242 4.34637 173.296 7.61337C153.755 11.2071 132.419 17.0877 111.681 22.8049C103.307 25.0918 95.5299 27.2154 87.9527 29.3389C82.3694 30.8091 76.7862 31.9526 71.203 32.9327C61.6317 34.7295 51.6617 36.6897 42.888 40.4468C5.59999 55.965 2.01077 89.1251 3.40658 107.584C5.99879 144.828 29.5281 179.294 48.87 185.338C81.3724 195.303 119.657 189.586 164.124 182.888C190.844 178.804 218.56 174.721 248.471 173.414C276.387 172.107 294.931 166.553 306.297 155.772C319.657 143.194 324.443 122.775 321.451 91.412C317.862 55.8017 304.502 30.6458 281.372 16.761C265.619 7.28667 245.878 2.71286 221.751 2.71286Z" fill="#51554E"/>
<path d="M31.7543 57.7793V59.5761C25.1741 62.6798 20.9867 66.6002 19.5909 71.5007C21.1861 70.684 22.7813 70.1939 24.1771 70.1939C26.3705 70.1939 28.3645 71.0107 29.9597 72.4808C31.5549 73.951 32.3525 75.9112 32.3525 78.0347C32.3525 80.485 31.3555 82.4452 29.1621 84.0787C27.1681 85.7122 24.5759 86.5289 21.5849 86.5289C18.5938 86.5289 16.0016 85.5488 14.0076 83.4253C12.0136 81.3017 11.0166 78.6881 11.0166 75.5845C11.0166 71.174 13.0106 67.2536 17.198 63.8233C20.9867 60.3929 25.9717 58.2693 31.7543 57.7793ZM57.6765 57.7793V59.5761C51.0962 62.6798 46.9088 66.6002 45.513 71.5007C47.1082 70.684 48.7034 70.1939 50.0992 70.1939C52.2927 70.1939 54.2867 71.0107 55.8819 72.4808C57.4771 73.951 58.2747 75.9112 58.2747 78.0347C58.2747 80.485 57.2777 82.4452 55.2837 84.0787C53.2897 85.7122 50.6974 86.5289 47.7064 86.5289C44.7154 86.5289 42.1232 85.5488 40.1292 83.4253C38.1352 81.3017 37.1382 78.6881 37.1382 75.5845C37.1382 71.174 39.1322 67.2536 43.3196 63.8233C47.1082 60.3929 51.8939 58.2693 57.6765 57.7793Z" fill="#51554E"/>
<path d="M293.537 152.196V150.399C300.117 147.295 304.305 143.375 305.7 138.475C304.105 139.291 302.51 139.781 301.114 139.781C298.921 139.781 296.927 138.965 295.332 137.494C293.736 136.024 292.939 134.064 292.939 131.94C292.939 129.49 293.936 127.53 296.129 125.897C298.123 124.263 300.715 123.446 303.706 123.446C306.697 123.446 309.29 124.426 311.284 126.55C313.278 128.673 314.275 131.287 314.275 134.391C314.275 138.801 312.281 142.722 308.093 146.152C304.305 149.746 299.32 151.706 293.537 152.196ZM267.615 152.196V150.399C274.195 147.295 278.382 143.375 279.778 138.475C278.183 139.291 276.588 139.781 275.192 139.781C272.999 139.781 271.005 138.965 269.409 137.494C267.814 136.024 267.017 134.064 267.017 131.94C267.017 129.49 268.014 127.53 270.008 125.897C272.002 124.263 274.594 123.446 277.585 123.446C280.576 123.446 283.168 124.426 285.162 126.55C287.156 128.673 288.153 131.287 288.153 134.391C288.153 138.801 286.159 142.722 281.972 146.152C278.183 149.746 273.397 151.706 267.615 152.196Z" fill="#51554E"/>
</svg>
