<svg width="188" height="211" viewBox="0 0 188 211" fill="none" xmlns="http://www.w3.org/2000/svg">
<path opacity="0.5" d="M139.717 2.1316C141.663 4.32317 143.821 6.42365 145.706 8.76728C148.35 12.2978 150.507 16.1627 152.239 20.2098C153.423 22.9788 154.821 25.6567 156.005 28.4258C157.767 32.8379 159.315 37.3412 160.864 41.8445C162.382 45.9827 163.687 50.2121 164.993 54.4414C165.903 57.4536 166.814 60.4659 167.664 63.6302C169.211 69.0157 170.546 74.4922 172.033 80.0298C173.338 85.1413 174.704 90.1008 175.856 95.1514C177.615 103.092 179.313 111.185 180.86 119.217C182.254 127.188 183.496 135.099 184.525 143.1C185.645 151.314 186.4 159.559 187.307 167.864C187.731 171.211 187.789 174.587 187.848 177.964C187.877 179.211 187.451 180.276 187.267 181.614C185.686 181.157 184.621 181.613 183.586 182.433C182.338 183.345 181.546 184.44 180.299 185.351C177.651 187.114 175.003 188.877 171.93 189.939C162.102 192.884 152.092 195.402 142.113 197.403C131.403 199.465 120.755 201.374 110.167 203.131C101.466 204.586 92.6737 205.827 84.0032 206.764C71.7732 208.217 59.665 209.364 47.2835 209.873C37.4574 210.171 27.6923 210.317 17.8976 209.215C14.8558 208.878 11.753 208.694 8.894 207.901C6.33911 207.23 3.63216 206.498 1.47369 204.398C0.105716 202.967 -0.228005 201.598 0.138234 199.803C0.565413 197.857 0.84053 195.849 1.11565 193.842C1.32982 191.986 2.24337 190.587 3.67404 189.219C8.02701 184.963 13.5042 182.746 19.0725 180.742C25.8579 178.343 32.9166 176.584 39.9446 175.341C48.6459 173.887 57.5294 172.858 66.3211 172.499C73.6527 172.261 80.8931 171.809 88.2548 171.936C99.1453 172.065 110.005 172.711 120.926 173.205C121.443 173.235 121.96 173.266 122.447 172.932C121.991 172.749 121.382 172.505 120.926 172.322C117.246 171.377 113.566 170.431 109.885 169.486C106.661 168.723 103.437 167.961 100.213 167.198C97.8104 166.588 95.6206 165.887 93.2177 165.277C90.8149 164.667 88.3512 164.209 86.0093 163.447C83.6064 162.837 81.2646 162.075 78.8617 161.465C76.1548 160.733 73.5999 160.062 70.893 159.33C69.6155 158.995 68.3381 158.659 67.0606 158.324C64.0496 157.47 60.9474 156.403 57.9363 155.549C54.469 154.513 50.7888 153.567 47.3215 152.531C44.6755 151.647 41.8774 150.702 39.1403 149.605C33.7572 147.624 28.374 145.643 22.8998 143.449C19.4024 142.047 15.8747 140.281 12.5601 138.423C10.3401 137.357 8.39408 136.047 6.29597 134.677C5.44453 134.159 4.86705 133.398 4.22862 132.789C3.10382 131.633 2.7701 130.264 3.0754 128.621C3.34993 127.496 3.25939 126.401 3.53393 125.275C3.90016 123.481 4.41846 121.747 4.87582 120.165C4.93676 120.013 4.99771 119.861 4.99771 119.861C7.15852 118.433 8.80278 116.092 11.8452 115.546C16.5609 114.789 21.276 114.913 25.9302 115.19C34.7214 115.713 43.3599 117.058 51.8766 118.706C56.7432 119.774 61.5187 120.629 66.3853 121.697C69.7614 122.52 73.2287 123.557 76.6959 124.594C79.707 125.447 82.5051 126.392 85.5161 127.246C89.1355 128.344 92.6027 129.38 96.1002 130.782C100.51 132.549 105.011 134.529 109.36 136.449C109.968 136.693 110.667 137.149 111.215 137.545C111.276 137.393 111.337 137.241 111.489 137.302C109.33 135.202 107.081 132.888 104.922 130.788C97.3829 123.178 89.9347 115.78 82.3955 108.17C75.7378 101.443 69.4151 94.3202 63.6402 86.7113C59.9321 81.8719 56.5281 77.1545 54.0069 71.5554C52.7312 68.5733 51.9117 65.7741 52.5833 62.337C53.0412 59.8733 53.3471 57.3486 54.018 54.7937C54.3837 53.8813 54.8405 53.1819 55.6623 52.4524C56.3622 52.027 56.7581 51.4797 57.306 50.9933C58.3106 49.8075 59.7407 49.3218 61.201 49.201C63.8174 48.8377 66.3723 49.5087 68.8662 50.3317C71.9684 51.3985 74.9186 52.4043 77.8379 53.9273C81.2135 55.6331 84.4672 57.643 87.7208 59.6529C98.3025 66.7175 107.606 75.211 116.787 84.0087C123.901 90.9189 130.801 97.9202 137.763 104.769C138.402 105.378 139.04 105.987 140.105 106.414C139.771 105.045 139.376 103.827 139.042 102.458C137.737 98.229 136.432 93.9997 135.127 89.7703C133.821 85.541 132.516 81.3117 131.424 76.9912C128.845 67.1332 126.265 57.2752 123.838 47.4782C121.502 37.8942 119.744 28.1888 119.142 18.2409C118.841 14.5902 119.056 10.9703 120.306 7.41193C120.976 5.73924 122.133 4.61443 123.685 3.82454C125.724 2.70033 127.701 1.72818 129.74 0.603974C131.292 -0.185936 132.844 -0.0936543 134.638 0.272585C135.095 0.455413 135.521 0.273173 136.038 0.303925C137.132 1.0956 138.501 1.64406 139.717 2.1316ZM176.428 150.974L176.641 150.882C176.58 150.152 176.368 149.361 176.307 148.631C173.548 134.818 170.515 121.249 166.965 107.648C165.418 101.381 163.505 95.1432 161.745 88.9666C160.592 84.7982 159.226 80.721 158.012 76.7046C156.797 72.6883 155.735 68.7329 154.308 64.8077C153.033 60.9435 151.697 57.2313 150.422 53.367C148.418 47.7987 146.353 42.3825 144.288 36.9662C143.285 34.6232 142.131 32.2192 141.068 30.0282C139.154 26.4373 137.24 22.8464 135.325 19.2555C135.143 18.8295 134.687 18.6467 134.201 18.0988C134.291 19.194 134.199 19.8631 134.26 20.5933C135.47 29.9028 137.198 39.2431 139.565 48.31C141.871 57.529 144.542 66.7178 147.213 75.9065C149.338 82.9351 151.614 90.0246 153.891 97.1141C155.682 102.774 157.686 108.342 159.629 114.062C161.269 118.778 162.97 123.343 164.67 127.907C165.429 129.976 166.036 131.984 166.795 134.053C167.555 136.122 168.04 138.435 169.225 140.322C171.352 143.821 173.996 147.352 176.428 150.974ZM156.741 158.261C156.954 158.17 157.015 158.018 157.228 157.927C156.103 155.888 154.979 153.849 153.642 151.901C146.166 140.61 137.442 130.231 128.049 120.643C123.306 115.742 118.564 110.841 113.821 105.94C107.559 99.5475 101.236 93.307 94.7603 87.0057C88.8624 81.4652 82.6905 76.168 75.8488 71.6612C74.7542 70.8695 73.5987 70.2299 72.291 69.5294C72.1692 69.8335 72.1082 69.9856 72.1082 69.9856C72.4727 70.8376 72.9892 71.7505 73.4147 72.4505C77.0612 78.3241 81.2557 83.7113 85.8762 88.9163C94.6308 98.7784 103.994 108.002 113.419 117.074C119.56 122.888 125.701 128.702 131.842 134.517C139.594 142.036 147.559 149.464 155.312 156.983C155.798 157.531 156.193 157.866 156.741 158.261ZM26.6994 193.859C26.6384 194.011 26.7905 194.072 26.7295 194.224C27.0337 194.345 27.3378 194.467 27.7029 194.437C34.6084 194.381 41.4529 194.477 48.2673 194.207C60.6489 193.699 72.97 192.459 84.9569 190.733C96.2136 189.068 107.44 187.037 118.758 185.219C121.222 184.795 123.747 184.219 126.425 183.703C125.878 183.308 125.421 183.125 124.843 183.246C118.82 183.303 112.797 183.36 106.773 183.417C97.7383 183.502 88.6424 183.739 79.6376 184.189C72.6102 184.55 65.4609 185.214 58.3418 186.244C48.4542 187.576 38.9312 189.76 29.5595 192.887C28.6164 193.038 27.7034 193.555 26.6994 193.859ZM85.8683 146.624C85.9293 146.472 85.9293 146.472 85.9902 146.32C84.0134 145.528 82.0975 144.583 79.9077 143.882C77.7179 143.181 75.3151 142.571 73.1253 141.87C70.4183 141.138 67.6202 140.193 64.9133 139.461C61.6892 138.699 58.3131 137.875 55.089 137.113C53.2944 136.746 51.6519 136.441 49.8573 136.075C50.952 136.866 52.1685 137.354 53.385 137.841C56.5481 138.756 59.7112 139.671 62.9353 140.434C65.6423 141.165 68.4403 142.11 71.1473 142.842C74.8275 143.788 78.6599 144.794 82.3401 145.74C83.5566 146.227 84.743 146.35 85.8683 146.624Z" fill="#75C336"/>
</svg>
