<svg width="114" height="102" viewBox="0 0 114 102" fill="none" xmlns="http://www.w3.org/2000/svg">
<path opacity="0.5" d="M110.3 50.1C100.9 43.1 87.8 42.8 75.2 43.9C83.1 34.1 88.6 22.2 86.1 11.1C84.6 4.60004 75.7 4.10004 72.4 9.30004C66.8 18.2 61.2 27.1 55.6 36C54.5 31.2 53.4 26.3 52.5 21.4C51 14.1 49.1 7.90004 44.2 2.30004C39.8 -2.79996 31.6 1.50004 31.4 7.60004C31.2 18.9 32.9 29.8 36.4 40.2C29.5 40 22.7 39.9 15.8 40C9.80001 40.1 5.80001 40.1 2.00001 45.1C0.400006 47.2 0.800006 50.5 2.00001 52.6C5.70001 59.1 16.6 60.6 23.3 61.7C27 62.3 30.6 62.2 34.1 61.9C31.4 66 28.9 70.3 25.6 73.8C20.9 78.7 15.8 87.8 23.8 92.6C30.5 96.6 38.6 91 42.6 85.6C45.5 81.8 47.8 77.4 50 72.8C51.9 77.1 54.1 81.3 56.5 85.3C60.4 91.7 66.6 104.4 76 100.9C88.7 96.1 78.8 78.9 69.5 65.7C83.3 68.2 97.4 68.8 110.2 62.8C115.9 60.4 114.3 53.1 110.3 50.1Z" fill="#75C336"/>
</svg>
