<svg width="160" height="156" viewBox="0 0 160 156" fill="none" xmlns="http://www.w3.org/2000/svg">
<g opacity="0.4" clip-path="url(#clip0)">
<path d="M137.073 24.2114C134.942 8.79585 117.701 3.1214 104.44 1.22992C90.183 -0.803427 75.3582 -0.377844 61.3859 3.1214C47.3189 6.66793 33.7728 13.1463 23.2107 23.1711C13.2644 32.6285 5.73352 44.7813 2.27597 58.1162C-1.27631 71.6876 -0.707949 86.0156 5.02306 98.9723C11.2751 113.064 22.6897 124.224 35.2411 132.877C41.7299 137.322 48.6451 141.2 55.7022 144.699C63.1383 148.387 70.7639 151.697 78.8157 153.778C94.0195 157.703 109.886 156.71 124.095 149.711C137.594 143.091 148.298 131.931 154.171 118.029C160.234 103.701 160.66 87.5288 155.687 72.8225C153.082 65.1147 149.009 57.9744 144.462 51.2123C139.489 43.8356 133.71 36.7898 126.511 31.4463C115.333 23.1238 101.219 20.4285 87.7201 23.6913C61.9069 29.8859 40.0722 53.9077 40.6879 81.0505C40.83 87.9544 42.3457 94.7164 45.9927 100.627C49.9712 107.106 56.318 111.74 63.5646 114.01C78.1053 118.596 95.3457 116.232 107.85 107.389C119.501 99.1614 125.943 84.2187 122.627 70.1272C121.064 63.4124 117.37 57.0286 111.591 53.1038C105.766 49.1317 98.4243 47.6658 91.5092 48.6588C84.8309 49.6046 78.2947 53.0092 74.5056 58.6837C70.1955 65.0674 69.2956 73.5791 73.9846 80.0101C77.7737 85.259 85.0678 88.38 91.5092 86.9613C98.5191 85.4009 105.292 77.8349 101.692 70.4109C100.224 67.3845 96.9087 65.4457 93.5932 65.1147C89.7568 64.7364 86.6781 66.7225 85.0204 70.0326C83.931 72.1605 85.5888 74.9032 87.6254 75.707C90.0409 76.6055 92.2197 75.2342 93.309 73.1062C93.1669 73.3427 92.7407 73.6737 92.6933 73.8155C92.6933 73.7683 92.8828 73.8155 93.2617 73.9101C93.2143 73.9101 93.83 74.2411 93.7827 74.1466C93.6879 73.7683 93.8774 74.5721 93.83 74.7613C93.83 74.9504 93.688 75.4706 93.6406 75.4706C93.2143 76.4163 92.3144 77.1729 91.4145 77.6931C87.6728 79.821 82.8417 77.4566 80.7103 74.2411C78.2 70.3636 80.284 64.4054 83.6942 61.379C87.4359 58.069 92.5512 56.7449 97.477 57.1705C102.687 57.5961 107.423 59.9132 110.549 64.1217C113.675 68.2357 114.954 73.6264 114.67 78.7334C114.054 90.5552 106.287 99.7288 95.5351 104.174C84.3573 108.808 68.6325 109.281 58.6388 101.668C49.9239 95.0001 48.4556 83.0365 50.1607 72.9171C53.713 51.8743 72.8005 34.3309 93.83 31.3991C105.718 29.744 116.659 33.858 125.422 41.8968C130.916 46.9565 135.463 53.1984 139.441 59.4876C143.088 65.2093 146.167 71.4039 148.156 77.8822C155.592 102.33 143.988 129.709 121.159 141.247C109.65 147.063 96.814 148.624 84.1678 145.928C70.7639 143.044 57.7389 136.471 46.1348 129.331C35.0043 122.474 24.5843 114.104 17.3376 103.086C10.8488 93.2505 7.95961 81.6179 9.04898 69.938C11.2277 46.5309 27.1893 26.5758 48.2661 16.8819C59.4913 11.7276 71.8533 9.12685 84.2152 8.74856C90.4672 8.55941 96.7666 8.93771 102.971 9.78887C108.75 10.5928 114.67 11.8222 119.833 14.6594C124.143 17.0238 127.742 20.4757 128.453 25.5355C129.163 31.2572 137.831 29.8386 137.073 24.2114Z" fill="#75C336"/>
</g>
<defs>
<clipPath id="clip0">
<rect width="159" height="156" fill="white" transform="translate(0.0495605)"/>
</clipPath>
</defs>
</svg>
