<svg width="781" height="392" viewBox="0 0 781 392" fill="none" xmlns="http://www.w3.org/2000/svg">
<path opacity="0.7" d="M158.75 62.5641C122.639 65.5975 86.5267 74.6975 61.6388 91.3809C32.8469 110.794 23.087 138.094 16.255 164.181C8.44703 194.818 3.07905 225.758 0.63906 256.698C-1.80093 291.278 1.12706 329.499 38.7029 355.282C70.4228 377.426 121.663 385.312 168.998 384.402C216.822 383.492 263.182 374.999 309.542 368.932C382.253 359.529 457.405 356.495 531.581 359.832C564.277 361.349 596.973 364.079 629.668 361.955C662.364 359.832 695.548 352.249 716.532 336.779C736.54 322.219 743.372 302.199 747.764 283.392C758.5 233.645 754.596 182.988 737.028 134.151C730.684 117.164 722.876 100.481 708.724 85.6175C694.572 70.7541 673.588 58.0141 647.724 51.9474C619.908 45.5774 589.653 47.3974 560.373 49.2174C488.149 49.2174 412.509 58.9241 340.774 63.7775C279.286 68.0241 220.238 57.1041 158.75 62.5641Z" fill="#FF6C00"/>
<path d="M190.468 391.684C154.844 391.684 123.124 385.92 98.7242 374.393C52.3644 352.553 38.2125 314.636 30.4045 280.36C23.0845 249.723 18.6925 218.479 17.7165 187.236C16.7406 159.936 18.6925 131.726 41.1404 108.976C64.0763 86.2255 101.652 74.3954 129.956 68.3287C161.188 61.6554 192.908 59.532 224.14 57.712C252.444 55.892 281.235 54.072 309.539 48.612C332.475 44.3653 355.899 39.2086 378.835 34.3552C425.683 24.3452 473.507 14.3351 521.33 8.57178C548.17 3.41509 578.914 -2.34827 609.17 0.988416C635.034 3.71843 660.898 13.1218 681.394 27.6819C701.402 41.9386 715.065 59.2287 724.337 72.5754C757.033 118.986 776.065 168.126 780.457 218.783C781.921 237.286 781.433 258.52 765.817 276.416C751.177 292.796 722.385 305.536 685.786 312.21C660.41 317.063 634.058 318.58 608.194 320.4C601.362 320.703 595.018 321.31 588.186 321.613C514.498 327.073 442.275 338.6 373.955 356.193C362.731 358.923 351.507 362.26 340.771 364.99C308.563 373.787 274.891 382.887 239.756 387.74C222.188 390.47 206.084 391.684 190.468 391.684ZM131.908 73.1821C105.068 78.9454 68.9563 90.1688 47.4844 111.706C26.0125 133.242 24.0605 160.846 25.0365 187.236C26.5005 218.176 30.8925 249.116 37.7245 279.753C45.5324 313.12 59.1964 349.823 103.116 370.753C135.812 386.223 184.612 391.077 236.828 383.797C271.475 378.943 304.171 369.843 336.379 361.35C347.115 358.317 358.827 355.283 369.563 352.553C438.859 334.657 511.57 323.13 585.746 317.67C592.578 317.063 598.922 316.76 605.754 316.456C631.13 314.94 657.482 313.12 681.882 308.57C717.018 302.2 743.857 290.066 757.521 274.9C772.649 258.216 773.137 237.893 771.185 219.996C766.793 169.946 748.249 121.412 715.554 75.6087C706.282 62.5654 693.106 45.5786 673.586 31.9286C654.066 18.2785 629.666 9.17845 605.754 6.75177C576.962 3.71843 547.194 9.48179 520.842 14.3351C473.507 20.0985 425.195 30.1085 378.835 40.1186C355.899 44.9719 332.475 49.8253 309.539 54.3753C280.747 59.8353 251.468 61.6554 223.164 63.4754C193.884 64.6887 162.164 66.5087 131.908 73.1821Z" fill="#51554E"/>
</svg>
