<svg width="204" height="57" viewBox="0 0 204 57" fill="none" xmlns="http://www.w3.org/2000/svg">
<g opacity="0.7">
<path d="M203.182 36.4531C195.349 25.4431 187.091 14.7206 178.35 4.2259C177.877 3.68883 177.097 3.67656 176.612 3.96317C176.491 4.02012 176.31 4.07612 176.187 4.25073C167.099 13.8765 158.487 23.8041 150.291 34.0324C142.876 23.2643 134.43 13.0685 125.017 3.38713C124.484 2.84912 123.821 3.01524 123.394 3.42047C123.093 3.47458 122.791 3.58752 122.607 3.87886C116.523 13.4342 110.023 22.7476 103.105 31.8191C95.4321 22.2239 87.0928 13.0302 78.0253 4.35469C77.3138 3.69618 76.3461 4.15174 76.0958 4.85398C75.9749 4.91092 75.914 4.96881 75.8522 5.08554C69.7804 13.8172 63.53 22.4284 57.0411 30.9181C50.4495 21.34 43.7978 11.7609 37.1452 2.24058C36.674 1.58585 35.7714 1.68935 35.2851 2.09363C35.0448 2.08985 34.8037 2.14491 34.561 2.31764C22.4197 11.1893 11.0483 20.838 0.627788 31.2079C-0.346603 32.1341 1.25488 33.5717 2.22928 32.6454C12.5889 22.3334 23.7776 12.8583 35.7979 4.04368C42.4496 13.6228 49.1013 23.2019 55.7522 32.8398C55.6195 33.7205 57.1718 34.3922 57.906 33.4622C64.6393 24.6821 71.1341 15.7805 77.4512 6.69958C86.1617 15.1341 94.265 24.0299 101.641 33.385C101.818 33.6231 102.116 33.7455 102.416 33.8091C102.829 34.3452 103.847 34.5378 104.398 33.8403C111.437 24.653 118.06 15.2238 124.264 5.61151C133.44 15.1126 141.708 25.1291 149.005 35.7776C149.181 36.0746 149.479 36.197 149.779 36.2606C150.253 36.68 151.154 36.753 151.582 36.1712C159.599 25.8812 168.211 15.9537 177.239 6.32695C185.625 16.463 193.587 26.8277 201.185 37.4809C201.95 38.5522 203.946 37.5832 203.182 36.4531Z" fill="#FF6C00"/>
<path d="M202.898 55.3785C195.066 44.3685 186.808 33.6461 178.067 23.1514C177.594 22.6144 176.813 22.6021 176.329 22.8887C176.208 22.9456 176.027 23.0016 175.904 23.1763C166.816 32.802 158.204 42.7295 150.008 52.9578C142.533 42.13 134.088 31.9342 124.673 22.3117C124.14 21.7737 123.477 21.9398 123.051 22.345C122.75 22.3992 122.448 22.5121 122.264 22.8034C116.181 32.2999 109.62 41.6124 102.702 50.6838C95.0296 41.0887 86.6903 31.895 77.6228 23.2195C76.9113 22.561 75.9436 23.0165 75.6933 23.7188C75.5724 23.7757 75.5115 23.8336 75.4497 23.9503C69.3779 32.682 63.1276 41.2931 56.6387 49.7828C50.1663 40.2654 43.5146 30.6864 36.8629 21.1073C36.3916 20.4525 35.489 20.556 35.0027 20.9603C34.7624 20.9566 34.5214 21.0116 34.2786 21.1843C22.1373 30.0559 10.7659 39.7046 0.345424 50.0745C-0.628966 51.0007 0.972521 52.4382 1.94691 51.512C12.3057 41.2589 23.4952 31.725 35.5147 22.9692C42.1063 32.5473 48.758 42.1264 55.4089 51.7643C55.2762 52.6449 56.8285 53.3167 57.5627 52.3866C64.296 43.6066 70.7908 34.705 77.1079 25.6241C85.8185 34.0586 93.9217 42.9544 101.297 52.3094C101.474 52.5476 101.773 52.67 102.072 52.7336C102.485 53.2697 103.504 53.4622 104.054 52.7647C111.094 43.5775 117.716 34.1484 123.921 24.5361C133.097 34.0372 141.364 44.0536 148.662 54.7021C148.837 54.9991 149.136 55.1215 149.436 55.185C149.91 55.6044 150.81 55.6774 151.239 55.0957C159.315 44.8655 167.928 34.8792 177.016 25.2534C185.402 35.3894 193.364 45.7541 200.961 56.4073C201.668 57.4188 203.664 56.4498 202.898 55.3785Z" fill="#FF6C00"/>
</g>
</svg>
