<svg width="159" height="156" viewBox="0 0 159 156" fill="none" xmlns="http://www.w3.org/2000/svg">
<g opacity="0.4" clip-path="url(#clip0)">
<path d="M137.024 24.2115C134.892 8.79588 117.652 3.12143 104.39 1.22995C90.1336 -0.803395 75.3087 -0.377811 61.3365 3.12143C47.2694 6.66796 33.7234 13.1463 23.1613 23.1711C13.2149 32.6286 5.68408 44.7813 2.22653 58.1163C-1.32575 71.6877 -0.757387 86.0156 4.97362 98.9723C11.2256 113.064 22.6403 124.224 35.1917 132.877C41.6805 137.322 48.5956 141.2 55.6528 144.699C63.0889 148.387 70.7145 151.697 78.7663 153.778C93.9701 157.703 109.837 156.71 124.046 149.711C137.545 143.091 148.249 131.931 154.122 118.029C160.185 103.701 160.611 87.5288 155.638 72.8225C153.033 65.1148 148.959 57.9744 144.412 51.2124C139.439 43.8356 133.661 36.7898 126.462 31.4464C115.284 23.1239 101.169 20.4285 87.6707 23.6913C61.8575 29.8859 40.0228 53.9077 40.6385 81.0505C40.7806 87.9544 42.2962 94.7165 45.9432 100.627C49.9218 107.106 56.2685 111.74 63.5152 114.01C78.0558 118.596 95.2962 116.232 107.8 107.389C119.452 99.1614 125.893 84.2187 122.578 70.1272C121.015 63.4124 117.32 57.0287 111.542 53.1039C105.716 49.1317 98.3749 47.6658 91.4598 48.6589C84.7815 49.6046 78.2453 53.0093 74.4562 58.6837C70.1461 65.0675 69.2462 73.5791 73.9352 80.0102C77.7243 85.259 85.0183 88.38 91.4598 86.9614C98.4696 85.4009 105.243 77.835 101.643 70.4109C100.175 67.3845 96.8592 65.4458 93.5438 65.1148C89.7073 64.7365 86.6287 66.7225 84.9709 70.0326C83.8816 72.1605 85.5393 74.9032 87.576 75.7071C89.9915 76.6055 92.1702 75.2342 93.2596 73.1063C93.1175 73.3427 92.6912 73.6737 92.6439 73.8156C92.6439 73.7683 92.8333 73.8156 93.2122 73.9101C93.1649 73.9101 93.7806 74.2412 93.7332 74.1466C93.6385 73.7683 93.828 74.5722 93.7806 74.7613C93.7806 74.9505 93.6385 75.4706 93.5911 75.4706C93.1649 76.4164 92.265 77.173 91.3651 77.6931C87.6233 79.821 82.7922 77.4567 80.6609 74.2412C78.1506 70.3636 80.2346 64.4055 83.6448 61.3791C87.3865 58.069 92.5018 56.745 97.4276 57.1705C102.638 57.5961 107.374 59.9132 110.5 64.1217C113.626 68.2357 114.905 73.6264 114.621 78.7334C114.005 90.5552 106.237 99.7289 95.4857 104.174C84.3079 108.808 68.5831 109.281 58.5894 101.668C49.8744 95.0002 48.4062 83.0366 50.1113 72.9171C53.6635 51.8744 72.7511 34.3309 93.7806 31.3991C105.669 29.744 116.61 33.858 125.372 41.8968C130.866 46.9565 135.413 53.1984 139.392 59.4876C143.039 65.2093 146.118 71.4039 148.107 77.8823C155.543 102.33 143.939 129.709 121.109 141.247C109.6 147.063 96.7645 148.624 84.1184 145.928C70.7145 143.044 57.6894 136.471 46.0853 129.331C34.9549 122.474 24.5348 114.104 17.2882 103.086C10.7994 93.2506 7.91017 81.6179 8.99954 69.938C11.1783 46.5309 27.1398 26.5758 48.2167 16.882C59.4419 11.7277 71.8038 9.12689 84.1658 8.74859C90.4178 8.55944 96.7172 8.93774 102.922 9.78891C108.7 10.5928 114.621 11.8222 119.783 14.6595C124.093 17.0238 127.693 20.4758 128.403 25.5355C129.114 31.2572 137.781 29.8386 137.024 24.2115Z" fill="#75C336"/>
</g>
<defs>
<clipPath id="clip0">
<rect width="159" height="156" fill="white"/>
</clipPath>
</defs>
</svg>
