<svg width="228" height="111" viewBox="0 0 228 111" fill="none" xmlns="http://www.w3.org/2000/svg">
<g opacity="0.4" clip-path="url(#clip0)">
<path d="M41.1792 78.7984C41.8954 77.9318 42.5604 77.0202 43.1743 76.0637C44.4347 78.3953 45.8812 80.6183 47.6579 82.7236C58.2155 95.265 76.5414 98.8116 86.3186 85.0542C86.8038 85.8433 87.3403 86.6773 87.8736 87.4633C98.7181 103.702 119.627 111.377 132.678 93.0168C135.377 89.2232 137.333 85.1397 138.791 80.7989C140.87 83.8498 143.135 86.7922 145.483 89.5361C155.444 101.054 174.683 104.542 184.969 91.1861C188.933 86.0562 190.435 80.1682 190.428 74.0881C196.988 79.2627 204.491 83.363 212.174 84.2666C216.6 84.8013 221.127 84.6539 223.404 80.3085C226.158 75.1119 225.874 66.9745 225.219 61.3222C223.4 45.8521 215.331 32.2332 207.347 19.1879C205.403 15.9835 200.482 19.0035 202.426 22.2079C208.367 32.007 214.509 41.9379 217.641 53.0765C219.396 59.3334 220.263 66.0336 219.33 72.5123C218.833 76.019 218.975 78.2297 214.329 78.7708C210.545 79.2081 206.049 76.8441 202.798 75.0753C197.998 72.4896 193.549 69.3504 189.504 65.7507C187.606 55.7872 182.957 45.8082 179.393 37.6895C176.507 31.1195 173.631 20.2057 167.705 15.8589C163.348 12.6654 158.249 15.1661 157.857 20.3068C157.798 20.8898 157.871 22.7671 158.011 23.4337C161.335 37.552 167.913 50.495 177.359 61.5157C179.238 63.7108 181.364 65.9866 183.681 68.2499C185.204 79.8785 182.544 92.5008 168.6 94.0282C154.844 95.4951 146.951 83.1195 140.772 72.6119C143.23 58.3617 140.87 42.7335 138.118 29.254C136.777 22.6808 134.761 10.8911 126.039 10.3441C116.834 9.77998 115.718 29.8793 117.462 35.2199C121.682 48.2669 127.25 61.9991 134.557 74.2678C132.876 82.6284 129.374 90.431 122.733 95.2029C108.851 105.172 96.9815 91.7496 89.65 79.0964C97.5218 61.9874 97.0686 40.0108 93.4033 22.1021C92.1412 16.0065 88.8607 8.54512 81.4597 9.02279C74.8757 9.44773 71.6776 15.976 69.6159 21.4175C69.2193 31.7222 73.9779 62.8314 83.3342 79.9384C81.9809 82.1491 80.3206 84.0901 78.344 85.6172C65.9839 95.2462 51.0451 80.6229 46.5258 69.6703C47.8621 66.4473 48.9038 63.1467 49.9036 59.9454C52.4288 51.9645 55.1447 43.1992 55.1786 34.7518C55.2079 29.9723 54.0683 22.0349 49.0887 19.6538C43.8115 17.1472 39.2835 28.4906 39.3145 28.9712C39.2339 29.2177 39.1502 29.4161 39.1207 29.7076C37.3662 42.8989 36.1185 57.2157 40.455 69.8208C39.1652 72.2687 37.6196 74.4919 35.7578 76.3011C30.8498 81.0094 24.1774 79.3167 18.7281 76.3868C12.5781 73.0678 9.93317 67.9783 9.26174 61.3137C8.19488 50.7657 10.5247 39.7572 12.1227 29.375C12.7071 25.7178 7.07182 24.3925 6.49057 28.0977C4.22132 42.2874 -1.59011 63.6549 8.81098 76.0134C16.8029 85.4389 32.6653 88.9514 41.1792 78.7984ZM163.553 21.8213C163.49 21.5841 163.617 20.5625 163.64 20.1749C165.286 21.7577 166.516 23.6087 167.373 25.6768C168.151 27.2673 168.978 28.8548 169.756 30.4453C171.373 33.8156 172.942 37.1889 174.418 40.6165C176.739 45.92 178.922 51.3288 180.819 56.8043C172.49 46.6286 166.589 34.4622 163.553 21.8213ZM124.552 38.1405C123.431 34.9795 122.874 31.5891 122.945 28.2064C123.032 25.064 123.392 21.6627 124.568 19.7046C128.095 13.7825 130.576 22.3089 131.49 26.0141C133.45 33.9468 134.846 42.1089 135.514 50.2215C135.877 54.3483 136.034 59.0192 135.812 63.8111C131.418 55.553 127.679 46.963 124.552 38.1405ZM84.6796 69.3794C78.306 55.1202 74.8714 23.5878 75.0357 23.1428C76.3533 19.6314 80.0056 10.4196 85.9836 17.8034C87.923 20.1877 87.9045 24.3874 88.2891 27.3546C89.1093 33.334 89.5963 39.3831 89.6956 45.409C89.8617 53.2162 89.4512 64.0526 86.3664 73.083C85.802 71.8164 85.2377 70.5499 84.6796 69.3794ZM44.7048 30.988C44.7343 30.6965 46.3015 25.8178 47.5975 26.458C49.2904 27.2657 49.3418 33.2947 49.348 34.8868C49.3419 39.2787 48.2274 43.6939 47.1997 47.9587C46.2882 51.7817 45.3271 56.3318 43.9273 60.8137C42.1861 51.0331 43.4029 40.7237 44.7048 30.988Z" fill="#75C336"/>
</g>
<defs>
<clipPath id="clip0">
<rect width="221.721" height="96.6056" fill="white" transform="translate(0 14.2803) rotate(-3.69283)"/>
</clipPath>
</defs>
</svg>
