<svg width="111" height="163" viewBox="0 0 111 163" fill="none" xmlns="http://www.w3.org/2000/svg">
<g opacity="0.4" clip-path="url(#clip0)">
<path d="M99.9083 121.607C99.062 121.43 98.2157 121.341 97.3694 121.253C98.483 119.613 99.4184 117.84 100.22 115.89C104.808 104.412 100.576 90.9397 87.8373 89.3442C88.1936 88.7238 88.55 88.1033 88.9063 87.4829C95.855 74.4535 93.4497 57.8344 76.5235 55.7072C73.0046 55.264 69.5749 55.4413 66.1896 56.0174C67.4814 53.5356 68.6395 51.0095 69.6194 48.4391C73.7173 37.6699 69.1294 23.6656 56.5239 21.627C51.6688 20.8293 47.2145 21.9372 43.1612 24.1088C44.2747 17.9043 44.3193 11.4339 42.1367 6.0272C40.8449 2.88065 39.1523 -0.0443086 35.4553 8.95874e-06C31.001 0.0443265 25.6559 3.14656 22.0925 5.58402C12.3377 12.276 6.19085 22.5576 0.311236 32.5291C-1.11412 34.9666 2.67199 37.1381 4.09735 34.745C8.50706 27.2996 12.9168 19.6327 19.2418 13.6055C22.8052 10.193 26.9477 7.22377 31.6246 5.5397C34.1636 4.60904 35.5889 3.72268 37.5933 6.60333C39.2414 8.95216 39.2859 12.7635 39.2859 15.5555C39.2859 19.677 38.796 23.7542 37.8606 27.7428C31.8919 32.5734 26.9031 39.2654 22.7607 44.5392C19.42 48.7936 13.184 54.5993 12.3823 60.0946C11.8032 64.1275 15.3221 66.6093 18.93 65.0582C19.3309 64.8809 20.5781 64.1718 20.979 63.8173C29.1748 56.5492 35.4998 47.5527 39.4641 37.3154C40.2659 35.2768 41.0231 33.0166 41.6912 30.7121C48.9071 25.5269 58.3056 22.7792 64.3188 31.5098C70.243 40.1074 64.8088 49.7686 60.0428 57.6572C49.6198 61.1582 40.0432 68.2934 32.0701 74.941C28.1949 78.1762 21.0235 83.7602 23.7852 89.7431C26.725 96.0805 40.5331 89.6101 43.4729 86.5522C50.6888 79.0625 57.8602 70.4649 63.428 61.2026C69.6194 59.3412 76.0781 58.8537 81.6459 61.6014C93.2715 67.2741 88.5945 79.9489 82.804 89.3442C68.5504 90.2306 54.0295 98.385 43.3839 107.249C39.7759 110.262 35.9453 115.137 38.9296 119.879C41.5576 124.133 47.0809 123.912 51.4906 123.336C58.5283 119.923 77.5925 105.609 85.6547 93.2885C87.6146 93.4214 89.5299 93.8203 91.2671 94.5737C102.135 99.36 97.7703 114.517 92.0688 121.43C89.4408 121.696 86.8574 122.184 84.363 122.671C78.127 123.823 71.312 125.197 65.6551 128.211C62.4481 129.895 57.5484 133.529 57.7711 137.65C57.9938 142.038 67.2141 141.018 67.5259 140.797C67.7041 140.797 67.8822 140.753 68.105 140.664C77.548 137.119 87.5701 132.82 94.3851 125.419C96.4786 125.374 98.5275 125.596 100.398 126.216C105.298 127.812 106.59 132.864 106.59 137.517C106.59 142.791 104.14 146.381 99.9083 149.217C93.227 153.738 85.0757 156.086 77.548 158.746C74.92 159.676 76.0335 163.886 78.7061 162.956C88.9954 159.322 105.343 155.555 109.841 144.209C113.137 135.434 109.752 123.646 99.9083 121.607ZM17.8165 60.6707C17.6828 60.8037 16.9701 61.1139 16.6583 61.2026C17.1483 59.5628 17.9055 58.056 18.9746 56.7708C19.7318 55.6629 20.5335 54.5992 21.2908 53.4913C22.9388 51.1868 24.676 48.9709 26.4132 46.755C29.1303 43.3426 31.9364 39.9301 34.9208 36.695C31.2238 45.8244 25.2105 54.1561 17.8165 60.6707ZM42.7603 80.7466C41.0231 82.6523 38.9742 84.2034 36.7025 85.3556C34.5644 86.4193 32.1591 87.3942 30.422 87.3056C25.2105 87.084 29.9766 82.3864 32.1591 80.4364C36.747 76.3148 41.6912 72.4592 46.9027 69.0911C49.5307 67.407 52.6042 65.59 55.8558 64.0389C51.936 69.9331 47.5263 75.5171 42.7603 80.7466ZM77.9489 96.0362C70.6884 105.387 50.867 118.948 50.5552 118.993C47.7045 119.392 40.3104 120.234 43.0721 113.63C43.9629 111.503 46.7691 109.996 48.5953 108.667C52.2924 106.008 56.1676 103.482 60.1764 101.266C65.2988 98.385 72.7374 94.751 79.8196 93.5544C79.1961 94.4407 78.5725 95.2828 77.9489 96.0362ZM66.7242 136.365C66.5014 136.454 62.7153 137.163 62.6708 136.055C62.6262 134.637 66.6351 132.465 67.7041 131.889C70.6439 130.338 74.0291 129.496 77.1916 128.654C80.0869 127.9 83.4721 126.925 86.9465 126.216C81.0223 130.87 73.6728 133.75 66.7242 136.365Z" fill="#75C336"/>
</g>
<defs>
<clipPath id="clip0">
<rect width="111" height="163" fill="white"/>
</clipPath>
</defs>
</svg>
