<svg width="1288" height="557" viewBox="0 0 1288 557" fill="none" xmlns="http://www.w3.org/2000/svg">
<path opacity="0.9" d="M271.283 24.898C209.572 29.912 147.862 44.9541 105.332 72.5311C56.1309 104.621 39.4524 149.747 27.7775 192.867C14.4348 243.509 5.26168 294.652 1.09207 345.795C-3.07753 402.954 1.9259 466.131 66.1378 508.75C120.343 545.352 207.905 558.389 288.795 556.885C370.519 555.38 449.742 541.341 528.964 531.313C653.219 515.77 781.642 510.756 908.398 516.271C964.271 518.778 1020.14 523.291 1076.02 519.781C1131.89 516.271 1188.6 503.736 1224.45 478.164C1258.65 454.097 1270.32 421.005 1277.83 389.918C1296.17 307.688 1289.5 223.954 1259.48 143.229C1248.64 115.15 1235.3 87.5731 1211.11 63.0045C1186.93 38.4358 1151.07 17.377 1106.87 7.34899C1059.34 -3.18043 1007.64 -0.172075 957.6 2.83633C834.179 2.83633 704.922 18.8812 582.335 26.9036C477.261 33.9232 376.357 15.8728 271.283 24.898Z" fill="#75C336"/>
<g opacity="0.5">
<path d="M498.479 529.819C499.652 501.959 503.694 472.927 518.167 448.582C534.204 421.699 564.844 403.993 593.529 393.383C622.605 382.643 655.201 380.82 684.538 391.691C710.354 401.259 732.715 419.681 747.513 442.789C766.224 471.951 772.612 507.752 767.723 541.861C767.527 543.423 769.874 544.009 770.135 542.447C778.74 482.821 751.555 420.527 695.881 393.839C667.718 380.364 635.643 378.867 605.72 386.939C588.966 391.43 573.254 399.111 558.39 407.899C544.635 415.97 531.727 425.539 522.078 438.363C502.455 464.4 497.37 498.183 496.001 529.884C495.936 531.511 498.413 531.381 498.479 529.819Z" fill="white"/>
<path d="M519.34 528.32C520.579 512.958 522.73 497.727 526.055 482.69C529.119 468.89 533.357 455.611 542.81 444.741C551.545 434.716 562.758 426.97 573.776 419.745C585.511 412.064 598.027 405.359 611.522 401.258C663.937 385.376 717.655 418.638 741.907 464.464C754.62 488.483 759.965 516.148 756.445 543.097C756.249 544.659 758.661 545.245 758.857 543.682C765.246 494.537 742.689 443.244 701.618 415.188C678.736 399.631 650.051 391.234 622.409 396.116C594.898 400.933 567.648 417.792 547.308 436.539C535.573 447.344 528.924 460.558 525.077 475.855C520.775 493.17 518.232 510.81 516.863 528.451C516.733 530.013 519.21 529.883 519.34 528.32Z" fill="white"/>
<path d="M537.79 527.214C542.353 486.27 558.977 437.58 603.634 425.603C615.564 422.414 628.081 422.869 640.337 423.846C652.333 424.822 664.458 425.799 675.606 430.485C694.056 438.231 708.528 453.333 719.155 469.932C733.236 491.998 741.19 517.385 742.885 543.422C743.015 544.984 745.427 544.919 745.362 543.357C742.559 500.721 721.828 451.185 681.865 430.681C672.412 425.799 662.242 423.52 651.746 422.414C638.642 420.982 625.147 419.68 612.044 421.437C591.639 424.171 573.906 436.083 561.389 452.161C544.83 473.447 538.376 500.33 535.443 526.628C535.247 528.19 537.594 528.841 537.79 527.214Z" fill="white"/>
<path d="M565.366 532.356C565.431 509.704 577.036 489.655 593.138 474.293C601.091 466.742 610.479 458.54 621.431 455.872C632.384 453.203 645.683 453.789 656.701 455.872C675.997 459.452 693.795 470.648 705.725 486.205C718.503 502.934 723.849 523.699 728.803 543.748C729.194 545.31 731.541 544.529 731.15 543.031C726.782 525.196 722.089 506.97 712.244 491.282C703.769 477.808 691.448 466.872 677.106 460.038C661.46 452.552 643.532 450.664 626.386 452.617C609.632 454.57 595.615 467.328 584.793 479.435C571.69 494.146 562.954 512.503 562.954 532.486C562.889 533.984 565.366 533.918 565.366 532.356Z" fill="white"/>
<path d="M581.925 530.338C586.88 499.744 615.499 480.086 645.944 484.643C675.28 489.004 702.596 514.651 710.484 543.097C710.941 544.594 713.288 543.878 712.831 542.381C704.421 512.047 674.824 485.164 643.271 481.844C612.631 478.654 584.467 499.159 579.513 529.752C579.317 531.315 581.664 531.901 581.925 530.338Z" fill="white"/>
</g>
</svg>
