<svg width="324" height="122" viewBox="0 0 324 122" fill="none" xmlns="http://www.w3.org/2000/svg">
<path opacity="0.4" d="M0.700226 34.058C0.739732 34.1464 0.83431 34.2455 0.970791 34.3259C12.3119 39.791 22.4151 47.4355 29.2653 56.4632C35.9 65.2337 41.3064 74.5179 49.0486 82.6167C62.2368 96.3764 79.9577 111.504 104.258 113.793C104.863 113.911 105.427 114.048 106.033 114.166C106.059 114.225 106.073 114.254 106.141 114.294C106.409 114.669 106.907 114.659 107.313 114.442C127.903 118.778 149.801 122.105 172.703 121.378C173.45 121.363 174.184 121.317 174.917 121.272C175.17 121.725 176.127 121.616 176.647 121.206C195.561 120.105 214.239 115.327 232.589 106.666C249.612 98.6341 265.736 88.7054 280.311 77.5603C308.999 55.5832 331.526 28.9358 344.889 0.905373C345.44 -0.224514 343.241 -0.195973 342.732 0.915173C335.158 16.814 324.634 32.2991 311.52 46.7147C291.771 68.4438 266.034 88.3601 237.48 102.536C237.569 102.285 237.615 102.052 237.691 101.77C247.234 87.4658 254.656 72.8015 259.774 57.9301C260.099 56.9715 258.678 56.829 257.875 57.5062C242.797 70.1132 239.175 86.7555 235.551 101.595C235.037 102.356 234.522 103.116 234.049 103.858C233.921 104.021 233.89 104.176 233.9 104.313C230.784 105.776 227.612 107.229 224.443 108.575C217.044 111.705 209.636 114.027 202.255 115.735C212.126 105.313 222.444 95.3288 228.294 83.5588C233.406 73.2855 239.406 60.9531 237.344 51.1642C237.18 50.4598 235.71 50.6574 235.279 51.3802C223.289 73.0349 204.524 94.0413 197.913 116.368C197.868 116.494 197.908 116.582 197.892 116.66C191.391 117.974 184.9 118.861 178.418 119.319C184.311 113.044 187.397 105.55 190.882 98.7248C194.714 91.2146 198.437 83.683 201.538 76.1109C204.668 68.4906 207.752 60.4311 208.543 52.8661C209.279 45.9626 206.517 40.2332 203.546 34.5975C203.24 34.0269 201.927 34.013 201.48 34.8135C194.033 48.7467 185.924 63.2233 180.863 77.4333C178.325 84.5771 177.448 91.6145 176.6 98.6037C175.752 105.593 174.973 112.622 174.749 119.545C166.927 119.93 159.118 119.779 151.496 119.262C151.538 119.243 151.538 119.243 151.525 119.214C160.329 103.366 165.032 87.2308 167.282 71.3432C168.32 63.8801 169.028 56.3525 167.76 49.3544C166.429 42.1018 163.034 35.6304 159.665 29.2179C159.373 28.6768 158.033 28.6039 157.6 29.4339C149.919 44.532 144.123 59.4594 144.469 74.2929C144.678 81.6227 145.26 88.9981 146.234 96.1274C147.283 103.648 150.949 110.952 149.26 119.095C142.91 118.61 136.677 117.826 130.531 116.897C143.34 74.6915 114.484 43.6496 87.8393 16.9925C87.8573 16.8077 87.8621 16.5935 87.8669 16.3792C87.9615 15.2411 85.7239 15.7463 85.6293 16.8844C85.6005 16.9326 85.6137 16.9621 85.6269 16.9915C85.3575 17.2887 85.2665 17.6475 85.5502 17.9449C85.5502 17.9449 85.5502 17.9449 85.5634 17.9743C84.0879 36.9446 87.0253 55.2152 95.4784 71.0911C104.145 87.3314 118.917 100.136 127.374 116.47C120.595 115.363 113.931 114.065 107.503 112.731C95.4239 95.1529 83.1265 77.4248 65.1255 63.6953C55.67 56.1501 44.809 49.622 33.8175 43.3644C24.4374 38.0125 14.3797 33.2817 1.60897 32.3792C0.408156 32.2797 -0.121057 33.6827 0.700226 34.058Z" fill="#75C336"/>
</svg>
