<svg width="348" height="248" viewBox="0 0 348 248" fill="none" xmlns="http://www.w3.org/2000/svg">
<path opacity="0.5" d="M186.669 228.986C186.919 229.171 187.195 229.256 187.367 229.301C188.892 230.819 191.251 230.193 189.934 228.249C170.885 200.411 151.419 171.904 140.142 143.451C134.344 128.875 132.956 115.462 128.323 101.097C123.994 87.732 116.808 74.1156 111.931 60.6478C112.113 60.8285 112.367 61.0816 112.648 61.2349C114.801 62.5568 117.091 63.8875 119.376 65.1502C123.982 68.2192 128.657 71.2925 133.159 74.3209C144.957 82.1465 156.42 90.5256 167.567 99.2224C167.504 99.286 167.482 99.4536 167.486 99.5216C167.233 99.7758 167.052 100.102 167.262 100.691C167.639 101.763 168.153 102.845 168.598 103.922C169.672 127.594 173.201 154.536 185.254 180.47C196.315 204.277 216.461 226.876 239.007 246.484C240.839 248.056 242.092 246.581 241.247 245.106C226.976 219.368 210.175 192.757 200.71 167.057C196.557 155.766 193.12 144.555 187.336 133.159C182.53 123.686 176.409 114.298 172.246 104.832C172.236 104.189 172.189 103.51 172.143 102.83C191.485 118.107 210.013 134.346 228.093 150.961C232.824 181.633 242.055 214.317 268.529 245.878C269.963 247.56 271.977 246.844 271.468 245.323C265.708 228.823 259.572 212.264 253.028 195.68C248.249 183.638 244.045 171.093 236.756 158.958C243.51 165.242 250.301 171.562 256.987 177.842C275.26 202.248 303.49 221.376 330.794 227.425C332.855 227.896 333.01 225.707 330.861 224.453C307.496 211.184 284.803 196.368 262.887 180.047C262.851 180.011 262.851 180.011 262.851 180.011C262.728 179.699 262.538 179.382 262.179 179.089C253.901 171.286 245.591 163.516 237.218 155.809C256.653 161.048 276.101 166.491 295.395 171.146C304.335 173.276 313.447 175.451 322.086 176.648C330.454 177.828 337.235 175.085 345.726 177.085C347.72 177.551 348.002 175.236 345.794 174.113C326.303 164.576 306.419 156.231 287.199 152.155C277.997 150.144 269.213 149.309 260.874 149.551C251.621 149.768 242.403 151.982 231.981 149.453C231.292 149.273 230.799 149.478 230.582 149.769C212.761 133.474 194.559 117.561 175.707 102.518C189.65 103.617 204.545 107.753 219.444 111.957C236.478 116.703 253.338 120.898 270.003 124.2C301.859 130.542 324.229 124.269 345.46 113.189C345.931 113.151 346.402 113.114 346.873 113.077C348.92 112.836 346.7 109.549 344.684 109.757C344.449 109.776 344.245 109.763 344.01 109.782C343.701 109.728 343.33 109.738 343 109.852C342.968 109.884 342.968 109.884 342.9 109.879C328.558 111.359 313.37 111.364 297.047 108.59C280.347 105.759 262.976 100.044 245.789 95.0165C231.741 90.9014 218.577 87.3503 206.382 88.5618C193.515 89.8656 182.275 93.6747 172.527 99.0339C172.083 98.9715 171.639 98.9092 171.236 98.9509C158.692 89.116 145.805 79.6986 132.484 70.862C132.964 70.9605 133.517 71.1313 133.997 71.2298C140.748 72.5089 146.602 71.059 152.186 70.0989C165.761 67.7925 178.869 64.5767 189.544 58.4318C201.36 51.6499 211.361 43.0607 223.935 36.97C236.965 30.6382 251.471 26.092 266.988 22.9972C268.926 22.6483 266.733 19.261 264.8 19.6779C264.8 19.6779 264.8 19.6779 264.768 19.7097L264.628 19.633C234.938 8.35824 206.037 15.0906 185.417 22.727C173.113 27.3133 162.606 33.9425 151.913 40.323C146.293 43.7155 140.568 47.0675 134.512 50.0262C127.832 53.2491 120.397 57.8101 110.548 56.2304C75.4951 33.2825 38.9986 10.9859 2.48471 0.828187C0.142024 0.204235 0.559047 3.34212 2.93803 4.00223C38.0698 13.733 73.5864 35.0536 107.542 57.2884C107.519 57.4561 107.533 57.6599 107.62 57.936C107.661 58.04 107.702 58.1441 107.742 58.2482C108.05 87.0456 108.51 118.085 119.688 150.049C130.152 179.973 154.112 208.904 186.669 228.986Z" fill="#75C336"/>
</svg>
