<svg width="82" height="74" viewBox="0 0 82 74" fill="none" xmlns="http://www.w3.org/2000/svg">
<g opacity="0.5" clip-path="url(#clip0)">
<path d="M79.3151 36.4543C72.4939 31.3609 62.9877 31.1426 53.8443 31.943C59.5771 24.8122 63.5682 16.1534 61.7541 8.07669C60.6656 3.34709 54.2072 2.98328 51.8125 6.76696C47.7488 13.2429 43.685 19.7188 39.6213 26.1947C38.8231 22.7021 38.0249 19.1367 37.3718 15.5713C36.2833 10.2596 34.9045 5.74827 31.3488 1.67354C28.1558 -2.03737 22.2054 1.09144 22.0603 5.52998C21.9151 13.7522 23.1488 21.6834 25.6886 29.2507C20.6815 29.1052 15.747 29.0324 10.7399 29.1052C6.38593 29.178 3.48328 29.178 0.725756 32.8161C-0.435305 34.3441 -0.14504 36.7453 0.725756 38.2733C3.41071 43.0029 11.3204 44.0944 16.1824 44.8948C18.8673 45.3314 21.4797 45.2586 24.0196 45.0403C22.0603 48.0236 20.2461 51.1524 17.8514 53.6991C14.4408 57.2645 10.7399 63.8859 16.5452 67.3786C21.4072 70.2891 27.285 66.2143 30.1877 62.2851C32.2921 59.5201 33.9612 56.3186 35.5576 52.9715C36.9364 56.1003 38.5328 59.1563 40.2744 62.0669C43.1045 66.7237 47.6036 75.9646 54.4249 73.4179C63.6408 69.9253 56.4567 57.41 49.7081 47.8053C59.7222 49.6244 69.9541 50.061 79.2426 45.6952C83.3788 43.9489 82.2178 38.6372 79.3151 36.4543Z" fill="#FF6C00"/>
</g>
<defs>
<clipPath id="clip0">
<rect width="82" height="74" fill="white"/>
</clipPath>
</defs>
</svg>
