<svg width="113" height="103" viewBox="0 0 113 103" fill="none" xmlns="http://www.w3.org/2000/svg">
<g opacity="0.5" clip-path="url(#clip0)">
<path d="M109.3 51.0987C99.9 44.0987 86.8 43.7987 74.2 44.8987C82.1 35.0987 87.6 23.1987 85.1 12.0987C83.6 5.5987 74.7 5.0987 71.4 10.2987C65.8 19.1987 60.2 28.0987 54.6 36.9987C53.5 32.1987 52.4 27.2987 51.5 22.3987C50 15.0987 48.1 8.8987 43.2 3.2987C38.8 -1.8013 30.6 2.4987 30.4 8.5987C30.2 19.8987 31.9 30.7987 35.4 41.1987C28.5 40.9987 21.7 40.8987 14.8 40.9987C8.80001 41.0987 4.80001 41.0987 1.00001 46.0987C-0.599994 48.1987 -0.199994 51.4987 1.00001 53.5987C4.70001 60.0987 15.6 61.5987 22.3 62.6987C26 63.2987 29.6 63.1987 33.1 62.8987C30.4 66.9987 27.9 71.2987 24.6 74.7987C19.9 79.6987 14.8 88.7987 22.8 93.5987C29.5 97.5987 37.6 91.9987 41.6 86.5987C44.5 82.7987 46.8 78.3987 49 73.7987C50.9 78.0987 53.1 82.2987 55.5 86.2987C59.4 92.6987 65.6 105.399 75 101.899C87.7 97.0987 77.8 79.8987 68.5 66.6987C82.3 69.1987 96.4 69.7987 109.2 63.7987C114.9 61.3987 113.3 54.0987 109.3 51.0987Z" fill="#75C336"/>
</g>
<defs>
<clipPath id="clip0">
<rect width="113" height="101.7" fill="white" transform="translate(0 0.998779)"/>
</clipPath>
</defs>
</svg>
