<svg width="85" height="339" viewBox="0 0 85 339" fill="none" xmlns="http://www.w3.org/2000/svg">
<path d="M57.3405 0.712778C38.7409 13.8731 20.6361 27.7373 2.92515 42.4043C2.01916 43.1975 2.00937 44.4975 2.50333 45.3012C2.60182 45.502 2.69956 45.8027 2.99805 46.005C19.4854 61.0295 36.4788 75.2578 53.9774 88.7899C35.7831 101.253 18.5759 115.424 2.25669 131.202C1.34995 132.095 1.64166 133.197 2.33637 133.902C2.4326 134.403 2.62883 134.905 3.12656 135.208C19.4516 145.232 35.3713 155.952 50.8858 167.369C34.6884 180.247 19.1827 194.231 4.56795 209.421C3.45895 210.613 4.24688 212.219 5.44383 212.628C5.54233 212.829 5.64157 212.93 5.84081 213.031C20.7659 223.044 35.4887 233.355 50.0085 244.064C33.8246 255.143 17.64 266.321 1.55539 277.501C0.449394 278.292 0.638097 279.794 1.33206 280.599C1.32904 280.999 1.42603 281.4 1.72301 281.802C16.972 301.917 33.5308 320.743 51.3016 337.977C52.8895 339.589 55.3097 336.907 53.7218 335.295C36.0503 318.161 19.7893 299.639 4.63874 279.724C20.8233 268.545 37.0079 257.367 53.2926 246.189C54.791 246.401 55.9105 243.809 54.3196 242.597C39.3029 231.484 24.0831 220.769 8.56106 210.352C22.7713 195.758 37.774 182.171 53.5677 169.789C53.9699 169.492 54.1737 168.994 54.2774 168.494C55.1827 167.801 55.4955 166.104 54.3023 165.195C38.5893 153.576 22.4711 142.654 6.04755 132.43C22.0638 117.051 38.9687 103.177 56.9615 90.9125C57.4638 90.6162 57.6675 90.1178 57.7713 89.6185C58.4773 88.8238 58.5886 87.3246 57.5939 86.6171C39.993 73.3842 22.9996 59.1559 6.5115 44.2314C23.6179 30.1598 41.119 16.7911 59.1156 4.02625C60.9254 2.73985 59.2503 -0.572871 57.3405 0.712778Z" fill="#FF6C00"/>
<path d="M82.9398 0.905486C64.3402 14.0658 46.2353 27.93 28.5244 42.5971C27.6184 43.3902 27.6086 44.6902 28.1026 45.494C28.2011 45.6947 28.2988 45.9954 28.5973 46.1977C45.0847 61.2222 62.0781 75.4505 79.5767 88.9827C61.2816 101.545 44.0744 115.716 27.8552 131.495C26.9485 132.388 27.2402 133.49 27.9349 134.195C28.0311 134.696 28.2274 135.197 28.7251 135.501C44.9501 145.524 60.8691 156.344 76.3836 167.761C60.1862 180.639 44.6805 194.623 30.0657 209.813C28.9567 211.005 29.7447 212.611 30.9416 213.02C31.0401 213.221 31.1393 213.322 31.3386 213.423C46.2636 223.436 60.9864 233.747 75.5062 244.456C59.4239 255.336 43.2393 266.514 27.0547 277.693C25.9487 278.484 26.1374 279.986 26.8313 280.791C26.8283 281.191 26.9253 281.592 27.2223 281.994C42.4713 302.109 59.0301 320.935 76.8008 338.169C78.3887 339.781 80.809 337.099 79.2211 335.487C61.6495 318.354 45.2885 299.831 30.238 279.917C46.4219 268.838 62.6065 257.66 78.8911 246.482C80.3895 246.693 81.5091 244.102 79.9181 242.89C64.9014 231.776 49.6816 221.061 34.1596 210.644C48.3698 196.051 63.3725 182.463 79.1662 170.082C79.5685 169.785 79.7722 169.286 79.876 168.787C80.7812 168.094 81.094 166.396 79.9008 165.487C64.1878 153.869 48.0696 142.947 31.6461 132.723C47.6623 117.343 64.5672 103.47 82.5601 91.2052C83.0623 90.909 83.2661 90.4105 83.3698 89.9112C84.0758 89.1165 84.1871 87.6173 83.1924 86.9098C65.6923 73.5777 48.5989 59.3486 32.1115 44.3241C49.2179 30.2525 66.7191 16.8838 84.7157 4.11896C86.4247 2.93178 84.7495 -0.380915 82.9398 0.905486Z" fill="#FF6C00"/>
</svg>
