<svg width="228" height="111" viewBox="0 0 228 111" fill="none" xmlns="http://www.w3.org/2000/svg">
<g opacity="0.4" clip-path="url(#clip0)">
<path d="M41.1791 78.798C41.8953 77.9313 42.5603 77.0198 43.1742 76.0632C44.4346 78.3948 45.8811 80.6179 47.6577 82.7231C58.2154 95.2645 76.5413 98.8111 86.3185 85.0537C86.8037 85.8428 87.3401 86.6768 87.8735 87.4628C98.718 103.702 119.627 111.376 132.678 93.0163C135.377 89.2227 137.333 85.1393 138.79 80.7984C140.869 83.8493 143.134 86.7917 145.483 89.5356C155.444 101.054 174.683 104.542 184.969 91.1857C188.933 86.0557 190.435 80.1677 190.428 74.0876C196.988 79.2622 204.491 83.3625 212.174 84.2661C216.6 84.8008 221.127 84.6534 223.404 80.308C226.157 75.1114 225.873 66.974 225.219 61.3218C223.4 45.8516 215.331 32.2327 207.347 19.1874C205.402 15.983 200.482 19.0031 202.426 22.2074C208.367 32.0065 214.509 41.9374 217.641 53.0761C219.396 59.3329 220.263 66.0332 219.33 72.5118C218.832 76.0185 218.975 78.2292 214.329 78.7703C210.545 79.2076 206.049 76.8436 202.798 75.0748C197.998 72.4891 193.549 69.3499 189.504 65.7502C187.606 55.7867 182.957 45.8077 179.393 37.689C176.507 31.119 173.631 20.2052 167.704 15.8584C163.348 12.6649 158.249 15.1656 157.857 20.3064C157.798 20.8893 157.871 22.7666 158.011 23.4333C161.335 37.5515 167.913 50.4946 177.359 61.5152C179.238 63.7103 181.364 65.9861 183.681 68.2494C185.204 79.878 182.544 92.5004 168.599 94.0277C154.844 95.4946 146.951 83.119 140.771 72.6114C143.23 58.3613 140.87 42.733 138.118 29.2535C136.777 22.6804 134.761 10.8906 126.039 10.3436C116.834 9.7795 115.718 29.8788 117.462 35.2194C121.682 48.2664 127.25 61.9986 134.556 74.2673C132.876 82.6279 129.374 90.4305 122.733 95.2024C108.851 105.171 96.9814 91.7491 89.6499 79.0959C97.5217 61.9869 97.0685 40.0103 93.4032 22.1016C92.1411 16.006 88.8605 8.54463 81.4596 9.0223C74.8756 9.44724 71.6775 15.9755 69.6158 21.417C69.2192 31.7217 73.9777 62.8309 83.3341 79.9379C81.9807 82.1486 80.3204 84.0896 78.3439 85.6167C65.9838 95.2457 51.045 80.6224 46.5257 69.6698C47.862 66.4468 48.9037 63.1462 49.9035 59.9449C52.4287 51.964 55.1446 43.1987 55.1784 34.7513C55.2078 29.9718 54.0681 22.0344 49.0886 19.6533C43.8114 17.1467 39.2834 28.4901 39.3144 28.9707C39.2338 29.2172 39.1501 29.4156 39.1206 29.7071C37.366 42.8984 36.1184 57.2152 40.4548 69.8203C39.1651 72.2683 37.6195 74.4914 35.7577 76.3006C30.8496 81.0089 24.1772 79.3162 18.728 76.3863C12.5779 73.0673 9.93305 67.9778 9.26161 61.3132C8.19476 50.7652 10.5245 39.7567 12.1226 29.3745C12.707 25.7174 7.0717 24.392 6.49044 28.0972C4.2212 42.2869 -1.59023 63.6544 8.81086 76.0129C16.8027 85.4384 32.6652 88.9509 41.1791 78.798ZM163.553 21.8208C163.489 21.5836 163.617 20.562 163.64 20.1744C165.286 21.7572 166.516 23.6082 167.373 25.6763C168.151 27.2668 168.978 28.8543 169.756 30.4448C171.373 33.8151 172.942 37.1884 174.418 40.6161C176.739 45.9195 178.922 51.3283 180.819 56.8038C172.489 46.6281 166.589 34.4617 163.553 21.8208ZM124.552 38.14C123.431 34.979 122.874 31.5886 122.945 28.2059C123.032 25.0635 123.392 21.6622 124.568 19.7041C128.095 13.782 130.576 22.3084 131.49 26.0136C133.45 33.9463 134.846 42.1084 135.514 50.221C135.877 54.3478 136.033 59.0188 135.812 63.8106C131.418 55.5525 127.679 46.9625 124.552 38.14ZM84.6794 69.379C78.3059 55.1197 74.8713 23.5873 75.0356 23.1423C76.3532 19.6309 80.0054 10.4191 85.9835 17.8029C87.9229 20.1872 87.9044 24.3869 88.289 27.3541C89.1092 33.3335 89.5961 39.3826 89.6955 45.4085C89.8616 53.2157 89.4511 64.0521 86.3662 73.0825C85.8019 71.816 85.2376 70.5494 84.6794 69.379ZM44.7047 30.9875C44.7342 30.696 46.3014 25.8173 47.5974 26.4575C49.2903 27.2652 49.3416 33.2942 49.3479 34.8863C49.3418 39.2782 48.2273 43.6934 47.1995 47.9582C46.2881 51.7812 45.327 56.3313 43.9272 60.8132C42.186 51.0326 43.4027 40.7232 44.7047 30.9875Z" fill="#75C336"/>
</g>
<defs>
<clipPath id="clip0">
<rect width="221.721" height="96.6056" fill="white" transform="translate(0 14.2803) rotate(-3.69283)"/>
</clipPath>
</defs>
</svg>
