<svg width="304" height="207" viewBox="0 0 304 207" fill="none" xmlns="http://www.w3.org/2000/svg">
<g opacity="0.4" clip-path="url(#clip0)">
<path d="M5.49819 146.873C10.3194 119.408 18.1381 91.1589 35.6819 68.925C55.1101 44.3798 87.8099 30.8507 117.639 24.0985C147.874 17.2686 180.427 19.7416 208.082 34.3698C232.419 47.2453 252.167 68.4431 263.804 93.2942C278.523 124.66 280.156 160.99 270.831 194.162C270.432 195.685 272.681 196.574 273.145 195.059C289.505 137.08 270.734 71.7557 219.045 37.9886C192.895 20.9333 161.295 15.2378 130.571 19.3107C113.372 21.5634 96.7879 27.1151 80.8989 33.8751C66.2026 40.0707 52.15 47.8618 40.9014 59.3073C18.0297 82.5428 8.55312 115.366 3.03378 146.612C2.75549 148.217 5.22845 148.413 5.49819 146.873Z" fill="#FF6C00"/>
<path d="M26.376 148.127C29.6209 133.06 33.7535 118.243 39.0237 103.773C43.8731 90.4951 49.8174 77.8874 60.6158 68.3521C70.5921 59.5615 82.7251 53.3546 94.5959 47.6384C107.237 41.5646 120.526 36.5615 134.443 34.2679C188.489 25.4045 237.375 65.4322 255.4 114.045C264.849 139.526 266.516 167.653 259.488 193.906C259.089 195.429 261.403 196.327 261.802 194.804C274.588 146.922 258.962 93.1113 221.93 59.9065C201.288 41.4795 173.954 29.389 145.911 30.5995C118.005 31.7626 88.7773 44.8979 66.1519 60.8119C53.1002 69.9831 44.7732 82.2096 38.9517 96.8691C32.4129 113.469 27.5763 130.623 23.903 147.931C23.5686 149.462 26.0416 149.658 26.376 148.127Z" fill="#FF6C00"/>
<path d="M44.811 149.452C54.7107 109.462 77.5836 63.3768 123.426 57.3666C135.672 55.7711 148.021 57.8662 160.043 60.4433C171.806 62.9862 183.699 65.5462 194.135 71.6561C211.407 81.7574 223.772 98.6286 232.127 116.479C243.189 140.203 247.741 166.414 246.003 192.449C245.927 194.014 248.326 194.267 248.467 192.709C251.286 150.074 237.238 98.2452 200.313 72.6714C191.583 66.5905 181.8 62.9967 171.541 60.5216C158.738 57.3815 145.531 54.319 132.31 54.3409C111.723 54.372 92.58 63.8528 78.0604 78.1482C58.8502 97.0753 48.9223 122.879 42.5613 148.564C42.1623 150.087 44.4034 151.04 44.811 149.452Z" fill="#FF6C00"/>
<path d="M71.4735 158.171C74.5123 135.723 88.6484 117.372 106.629 104.257C115.505 97.8156 125.888 90.9174 137.096 89.7097C148.304 88.502 161.411 90.8289 172.059 94.3404C190.719 100.423 206.893 113.859 216.677 130.848C227.148 149.11 229.721 170.397 232 190.922C232.183 192.522 234.612 192.056 234.421 190.521C232.433 172.266 230.172 153.581 222.473 136.737C215.841 122.267 205.062 109.808 191.741 101.149C177.213 91.6742 159.688 87.449 142.435 87.1337C125.569 86.8698 109.999 97.6773 97.681 108.259C82.7592 121.122 71.689 138.173 69.0652 157.983C68.804 159.459 71.2684 159.72 71.4735 158.171Z" fill="#FF6C00"/>
<path d="M88.154 158.345C97.0825 128.666 128.035 112.936 157.618 121.45C186.128 129.626 209.84 158.637 213.925 187.872C214.181 189.416 216.602 189.014 216.346 187.47C211.992 156.295 186.18 125.758 155.336 118.325C125.38 111.14 94.7682 127.769 85.8397 157.447C85.4407 158.97 87.6903 159.859 88.154 158.345Z" fill="#FF6C00"/>
</g>
<defs>
<clipPath id="clip0">
<rect width="283" height="171" fill="white" transform="translate(22.4517) rotate(7.5445)"/>
</clipPath>
</defs>
</svg>
