<svg width="22" height="23" viewBox="0 0 22 23" fill="none" xmlns="http://www.w3.org/2000/svg">
<path d="M18.3973 7.28352L9.26669 0.816031C6.33186 -1.24922 2.31006 0.843205 2.31006 4.43022V17.3652C2.31006 20.9522 6.35903 23.0446 9.26669 20.9794L18.3973 14.5119C20.8973 12.7456 20.8973 9.04985 18.3973 7.28352Z" fill="#E8E8E8"/>
<g opacity="0.2">
<path opacity="0.2" d="M11.5219 12.5825L3.64136 6.98461C2.1196 5.89764 0 6.98461 0 8.85964V20.0283C0 21.9033 2.1196 22.9903 3.64136 21.9033L11.5219 16.3054C12.8263 15.4358 12.8263 13.5065 11.5219 12.5825Z" fill="white"/>
<path opacity="0.2" d="M11.6577 12.4739L3.7771 6.87597C2.25534 5.789 0.135742 6.87597 0.135742 8.751V19.9197C0.135742 21.7947 2.25534 22.8817 3.7771 21.7947L11.6577 16.1968C12.962 15.3272 12.962 13.3978 11.6577 12.4739Z" fill="#F7F7F7"/>
<path opacity="0.2" d="M11.8207 12.3652L3.94019 6.76733C2.41843 5.68035 0.298828 6.76733 0.298828 8.64236V19.8382C0.298828 21.7132 2.41843 22.8002 3.94019 21.7132L11.8207 16.1153C13.1251 15.2185 13.1251 13.2892 11.8207 12.3652Z" fill="#EFEFEF"/>
<path opacity="0.2" d="M11.9843 12.2293L4.10376 6.63134C2.582 5.54437 0.462402 6.63134 0.462402 8.50637V19.675C0.462402 21.5501 2.582 22.637 4.10376 21.5501L11.9843 15.9521C13.2887 15.0826 13.2887 13.1532 11.9843 12.2293Z" fill="#E6E6E6"/>
<path opacity="0.2" d="M12.1201 12.1206L4.23951 6.5227C2.71774 5.43573 0.598145 6.5227 0.598145 8.39773V19.5664C0.598145 21.4414 2.71774 22.5284 4.23951 21.4414L12.1201 15.8435C13.4244 14.9739 13.4244 13.0445 12.1201 12.1206Z" fill="#DEDEDE"/>
<path opacity="0.2" d="M12.2827 12.012L4.4021 6.41406C2.88034 5.32708 0.760742 6.41406 0.760742 8.28909V19.4577C0.760742 21.3328 2.88034 22.4197 4.4021 21.3328L12.2827 15.7349C13.587 14.8653 13.587 12.9359 12.2827 12.012Z" fill="#D6D6D6"/>
<path opacity="0.2" d="M12.4457 11.9033L4.56519 6.30541C3.04343 5.21844 0.923828 6.30541 0.923828 8.18044V19.3491C0.923828 21.2241 3.04343 22.3111 4.56519 21.2241L12.4457 15.6262C13.7501 14.7566 13.7501 12.8273 12.4457 11.9033Z" fill="#CECECE"/>
<path opacity="0.2" d="M12.5815 11.7944L4.70093 6.19653C3.17917 5.10955 1.05957 6.19653 1.05957 8.07156V19.2402C1.05957 21.1152 3.17917 22.2022 4.70093 21.1152L12.5815 15.5173C13.8859 14.6477 13.8859 12.7184 12.5815 11.7944Z" fill="#C5C5C5"/>
<path opacity="0.2" d="M12.7451 11.6586L4.86451 6.08789C3.34274 5.00091 1.22314 6.08788 1.22314 7.96291V19.1316C1.22314 21.0066 3.34274 22.0936 4.86451 21.0066L12.7451 15.4087C14.0494 14.5119 14.0494 12.5826 12.7451 11.6586Z" fill="#BDBDBD"/>
<path opacity="0.2" d="M12.908 11.55L5.00025 5.97924C3.47849 4.89227 1.35889 5.97924 1.35889 7.85427V19.0229C1.35889 20.898 3.47849 21.9849 5.00025 20.898L12.8808 15.3C14.2123 14.4033 14.2123 12.4739 12.908 11.55Z" fill="#B5B5B5"/>
<path opacity="0.2" d="M13.0434 11.4412L5.16285 5.84326C3.64108 4.75628 1.52148 5.84326 1.52148 7.71829V18.8869C1.52148 20.762 3.64108 21.8489 5.16285 20.762L13.0434 15.1641C14.3478 14.2945 14.3478 12.3651 13.0434 11.4412Z" fill="#ADADAD"/>
<path opacity="0.2" d="M13.207 11.3325L5.32642 5.73461C3.80466 4.64764 1.68506 5.73461 1.68506 7.60964V18.7783C1.68506 20.6533 3.80466 21.7403 5.32642 20.6533L13.207 15.0554C14.5113 14.1858 14.5113 12.2565 13.207 11.3325Z" fill="#A5A5A5"/>
<path opacity="0.2" d="M13.3696 11.2236L5.48902 5.62573C3.96725 4.53875 1.84766 5.62573 1.84766 7.50076V18.6694C1.84766 20.5444 3.96725 21.6314 5.48902 20.5444L13.3696 14.9465C14.6739 14.0769 14.6739 12.1204 13.3696 11.2236Z" fill="#9C9C9C"/>
<path opacity="0.2" d="M13.5058 11.0879L5.62525 5.48998C4.10349 4.40301 1.98389 5.48998 1.98389 7.36501V18.5337C1.98389 20.4087 4.10349 21.4957 5.62525 20.4087L13.5058 14.8108C14.8102 13.9412 14.8102 12.0118 13.5058 11.0879Z" fill="#949494"/>
<path opacity="0.2" d="M13.6689 10.9793L5.78833 5.38134C4.26657 4.29437 2.14697 5.38134 2.14697 7.25637V18.425C2.14697 20.3001 4.26657 21.387 5.78833 20.3001L13.6689 14.7021C14.9733 13.8326 14.9733 11.9032 13.6689 10.9793Z" fill="#8C8C8C"/>
<path opacity="0.2" d="M13.8315 10.8704L5.95093 5.27246C4.42917 4.18548 2.30957 5.27246 2.30957 7.14748V18.3161C2.30957 20.1912 4.42917 21.2781 5.95093 20.1912L13.8315 14.5933C15.1359 13.7237 15.1359 11.7943 13.8315 10.8704Z" fill="#848484"/>
<path opacity="0.2" d="M13.9677 10.762L6.08716 5.16406C4.5654 4.07708 2.4458 5.16406 2.4458 7.03909V18.2077C2.4458 20.1099 4.5654 21.1969 6.08716 20.1099L13.9677 14.512C15.2721 13.6153 15.2721 11.6859 13.9677 10.762Z" fill="#7B7B7B"/>
<path opacity="0.2" d="M14.1303 10.6531L6.24976 5.05517C4.728 3.9682 2.6084 5.05517 2.6084 6.9302V18.0989C2.6084 19.9739 4.728 21.0609 6.24976 19.9739L14.1303 14.376C15.4347 13.5064 15.4347 11.5498 14.1303 10.6531Z" fill="#737373"/>
<path opacity="0.2" d="M14.2939 10.5173L6.41333 4.91943C4.89157 3.83245 2.77197 4.91943 2.77197 6.79446V17.9631C2.77197 19.8381 4.89157 20.9251 6.41333 19.8381L14.2939 14.2402C15.5983 13.3706 15.5983 11.4413 14.2939 10.5173Z" fill="#6B6B6B"/>
<path opacity="0.2" d="M14.4565 10.4087L6.57593 4.81079C5.05417 3.72381 2.93457 4.81079 2.93457 6.68581V17.8545C2.93457 19.7295 5.05417 20.8165 6.57593 19.7295L14.4565 14.1316C15.7337 13.262 15.7337 11.3326 14.4565 10.4087Z" fill="#636363"/>
<path opacity="0.2" d="M14.5922 10.2998L6.71167 4.7019C5.18991 3.61493 3.07031 4.7019 3.07031 6.57693V17.7456C3.07031 19.6206 5.18991 20.7076 6.71167 19.6206L14.5922 14.0227C15.8966 13.1531 15.8966 11.2237 14.5922 10.2998Z" fill="#5A5A5A"/>
<path opacity="0.2" d="M14.7558 10.1912L6.87525 4.59326C5.35349 3.50628 3.23389 4.59326 3.23389 6.46829V17.6641C3.23389 19.5391 5.35349 20.6261 6.87525 19.5391L14.7558 13.9412C16.0602 13.0445 16.0602 11.1151 14.7558 10.1912Z" fill="#525252"/>
<path opacity="0.2" d="M14.9189 10.0825L7.03833 4.48461C5.51657 3.39764 3.39697 4.48461 3.39697 6.35964V17.5283C3.39697 19.4033 5.51657 20.4903 7.03833 19.4033L14.9189 13.8598C16.1961 12.9358 16.1961 10.9793 14.9189 10.0825Z" fill="#4A4A4A"/>
<path opacity="0.2" d="M15.0546 9.94654L7.17408 4.34863C5.65231 3.26165 3.53271 4.34863 3.53271 6.22366V17.3923C3.53271 19.2673 5.65231 20.3543 7.17408 19.2673L15.0546 13.6694C16.359 12.7998 16.359 10.8705 15.0546 9.94654Z" fill="#424242"/>
<path opacity="0.2" d="M15.218 9.8379L7.31031 4.23998C5.78854 3.15301 3.66895 4.23998 3.66895 6.11501V17.2837C3.66895 19.1587 5.78854 20.2457 7.31031 19.1587L15.1909 13.5608C16.5224 12.6912 16.5224 10.7618 15.218 9.8379Z" fill="#3A3A3A"/>
<path opacity="0.2" d="M15.3808 9.72925L7.50025 4.13134C5.97849 3.04437 3.85889 4.13134 3.85889 6.00637V17.175C3.85889 19.0501 5.97849 20.137 7.50025 19.0501L15.3808 13.4521C16.658 12.5826 16.658 10.6532 15.3808 9.72925Z" fill="#313131"/>
<path opacity="0.2" d="M15.5165 9.62061L7.63599 4.0227C6.11423 2.93573 3.99463 4.0227 3.99463 5.89773V17.0664C3.99463 18.9414 6.11423 20.0284 7.63599 18.9414L15.5165 13.3435C16.8209 12.4739 16.8209 10.5445 15.5165 9.62061Z" fill="#292929"/>
<path opacity="0.2" d="M15.6796 9.48487L7.79908 3.88696C6.27731 2.79998 4.15771 3.88696 4.15771 5.76199V16.9306C4.15771 18.8057 6.27731 19.8926 7.79908 18.8057L15.6796 13.2078C16.984 12.3653 16.984 10.4088 15.6796 9.48487Z" fill="#212121"/>
<path opacity="0.2" d="M15.8425 9.37591L7.93482 3.80517C6.41306 2.7182 4.29346 3.80517 4.29346 5.6802V16.8489C4.29346 18.7239 6.41306 19.8109 7.93482 18.7239L15.8154 13.126C17.1197 12.2292 17.1197 10.2998 15.8425 9.37591Z" fill="#191919"/>
<path opacity="0.2" d="M15.9785 9.26734L8.0979 3.66943C6.57614 2.58245 4.45654 3.66943 4.45654 5.54446V16.7131C4.45654 18.5881 6.57614 19.6751 8.0979 18.5881L15.9785 12.9902C17.2828 12.1206 17.2828 10.1913 15.9785 9.26734Z" fill="#101010"/>
<path opacity="0.2" d="M16.1415 9.15845L8.26099 3.56054C6.73923 2.47357 4.61963 3.56054 4.61963 5.43557V16.6042C4.61963 18.4793 6.73923 19.5662 8.26099 18.4793L16.1415 12.8813C17.4459 12.0118 17.4459 10.0824 16.1415 9.15845Z" fill="#FF6C00"/>
<path opacity="0.2" d="M16.305 9.04981L8.39722 3.4519C6.87546 2.36493 4.75586 3.4519 4.75586 5.32693V16.4956C4.75586 18.3706 6.87546 19.4576 8.39722 18.3706L16.2778 12.7727C17.5821 11.9031 17.5821 9.97374 16.305 9.04981Z" fill="#FF6C00"/>
</g>
<path opacity="0.9" d="M16.332 8.99561L8.45142 3.3977C6.92966 2.31073 4.81006 3.3977 4.81006 5.27273V16.4414C4.81006 18.3164 6.92966 19.4034 8.45142 18.3164L16.332 12.7185C17.6363 11.8761 17.6363 9.91954 16.332 8.99561Z" fill="#FF6C00"/>
<path d="M17.3103 10.9522C17.3374 10.2185 17.0113 9.48475 16.332 8.99561L8.45142 3.3977C6.92966 2.31073 4.81006 3.3977 4.81006 5.27273V10.925H17.3103V10.9522Z" fill="#FF6C00"/>
<path d="M7.09262 19.0772C6.68501 19.0772 6.27739 18.9685 5.89695 18.7783C5.02737 18.3163 4.48389 17.4739 4.48389 16.4684V5.29979C4.48389 4.32152 5.0002 3.45194 5.89695 2.98998C6.76653 2.52801 7.77198 2.60953 8.58721 3.1802L16.4678 8.77811C17.1743 9.26725 17.5547 10.0281 17.5547 10.8977C17.5547 11.7401 17.1471 12.5282 16.4678 13.0173L8.58721 18.6152C8.15242 18.9141 7.63611 19.0772 7.09262 19.0772ZM7.09262 3.26172C6.76653 3.26172 6.44044 3.34324 6.14152 3.50629C5.46216 3.85955 5.02737 4.53891 5.02737 5.32697V16.4956C5.02737 17.2837 5.43499 17.963 6.14152 18.3163C6.82088 18.6696 7.60894 18.6152 8.26112 18.1804L16.1417 12.5825C16.6852 12.2021 17.0113 11.5771 17.0113 10.9249C17.0113 10.2455 16.6852 9.64769 16.1417 9.26725L8.26112 3.66933C7.90785 3.39759 7.50024 3.26172 7.09262 3.26172Z" fill="white"/>
<path opacity="0.9" d="M21.495 10.789C21.495 11.6586 20.7885 12.3651 19.9189 12.3651C19.0493 12.3651 18.3428 11.6586 18.3428 10.789C18.3428 9.91942 19.0493 9.21289 19.9189 9.21289C20.7885 9.21289 21.495 9.91942 21.495 10.789Z" fill="#FF6C00"/>
<path d="M19.9187 12.6369C18.9132 12.6369 18.0708 11.7945 18.0708 10.789C18.0708 9.78357 18.9132 8.94116 19.9187 8.94116C20.9241 8.94116 21.7665 9.78357 21.7665 10.789C21.7665 11.8216 20.9513 12.6369 19.9187 12.6369ZM19.9187 9.51182C19.2121 9.51182 18.6143 10.0825 18.6143 10.8162C18.6143 11.5227 19.1849 12.1206 19.9187 12.1206C20.6524 12.1206 21.223 11.5499 21.223 10.8162C21.223 10.0825 20.6524 9.51182 19.9187 9.51182Z" fill="white"/>
</svg>
